<svg xmlns="http://www.w3.org/2000/svg" xmlns:xlink="http://www.w3.org/1999/xlink" width="265" zoomAndPan="magnify" viewBox="0 0 198.75 198.749995" height="265" preserveAspectRatio="xMidYMid meet" version="1.0"><defs><clipPath id="b5f4c80c5d"><path d="M 69 49 L 70 49 L 70 50 L 69 50 Z M 69 49 " clip-rule="nonzero"/></clipPath><clipPath id="5767a721e4"><path d="M 27.464844 64.417969 L 58.273438 30.671875 L 170.570312 133.199219 L 139.761719 166.941406 Z M 27.464844 64.417969 " clip-rule="nonzero"/></clipPath><clipPath id="1ad9629ccc"><path d="M 58.078125 30.890625 L 27.269531 64.632812 L 139.566406 167.160156 L 170.371094 133.414062 Z M 58.078125 30.890625 " clip-rule="nonzero"/></clipPath><clipPath id="68fa47a059"><path d="M 50 36 L 152 36 L 152 154 L 50 154 Z M 50 36 " clip-rule="nonzero"/></clipPath><clipPath id="cd50e9611b"><path d="M 27.464844 64.417969 L 58.273438 30.671875 L 170.570312 133.199219 L 139.761719 166.941406 Z M 27.464844 64.417969 " clip-rule="nonzero"/></clipPath><clipPath id="ee00aed756"><path d="M 58.078125 30.890625 L 27.269531 64.632812 L 139.566406 167.160156 L 170.371094 133.414062 Z M 58.078125 30.890625 " clip-rule="nonzero"/></clipPath><clipPath id="781b088d85"><path d="M 65 57 L 66 57 L 66 58 L 65 58 Z M 65 57 " clip-rule="nonzero"/></clipPath><clipPath id="b5952c3968"><path d="M 27.464844 64.417969 L 58.273438 30.671875 L 170.570312 133.199219 L 139.761719 166.941406 Z M 27.464844 64.417969 " clip-rule="nonzero"/></clipPath><clipPath id="5dae7e6433"><path d="M 58.078125 30.890625 L 27.269531 64.632812 L 139.566406 167.160156 L 170.371094 133.414062 Z M 58.078125 30.890625 " clip-rule="nonzero"/></clipPath><clipPath id="b3fb36969d"><path d="M 106 40 L 155 40 L 155 91 L 106 91 Z M 106 40 " clip-rule="nonzero"/></clipPath><clipPath id="a47ea59749"><path d="M 43.800781 42.890625 L 154.582031 38.707031 L 158.796875 150.238281 L 48.015625 154.421875 Z M 43.800781 42.890625 " clip-rule="nonzero"/></clipPath><clipPath id="b1943a0e20"><path d="M 43.800781 42.890625 L 154.582031 38.707031 L 158.796875 150.238281 L 48.015625 154.421875 Z M 43.800781 42.890625 " clip-rule="nonzero"/></clipPath><clipPath id="9ac533cac8"><path d="M 48 83 L 114 83 L 114 154 L 48 154 Z M 48 83 " clip-rule="nonzero"/></clipPath><clipPath id="e63acc9182"><path d="M 43.800781 42.890625 L 154.582031 38.707031 L 158.796875 150.238281 L 48.015625 154.421875 Z M 43.800781 42.890625 " clip-rule="nonzero"/></clipPath><clipPath id="51b5bf9fea"><path d="M 43.800781 42.890625 L 154.582031 38.707031 L 158.796875 150.238281 L 48.015625 154.421875 Z M 43.800781 42.890625 " clip-rule="nonzero"/></clipPath><clipPath id="e26b3ec2d9"><path d="M 105 39 L 155 39 L 155 90 L 105 90 Z M 105 39 " clip-rule="nonzero"/></clipPath><clipPath id="242a8ecc49"><path d="M 43.800781 42.890625 L 154.582031 38.707031 L 158.796875 150.238281 L 48.015625 154.421875 Z M 43.800781 42.890625 " clip-rule="nonzero"/></clipPath><clipPath id="85a1ffbf64"><path d="M 43.800781 42.890625 L 154.582031 38.707031 L 158.796875 150.238281 L 48.015625 154.421875 Z M 43.800781 42.890625 " clip-rule="nonzero"/></clipPath><clipPath id="ae2c90ffc2"><path d="M 122 50 L 149 50 L 149 76 L 122 76 Z M 122 50 " clip-rule="nonzero"/></clipPath><clipPath id="6c3d99e0cd"><path d="M 43.800781 42.890625 L 154.582031 38.707031 L 158.796875 150.238281 L 48.015625 154.421875 Z M 43.800781 42.890625 " clip-rule="nonzero"/></clipPath><clipPath id="bb588d86ca"><path d="M 43.800781 42.890625 L 154.582031 38.707031 L 158.796875 150.238281 L 48.015625 154.421875 Z M 43.800781 42.890625 " clip-rule="nonzero"/></clipPath><clipPath id="43fb899fcd"><path d="M 116 45 L 143 45 L 143 71 L 116 71 Z M 116 45 " clip-rule="nonzero"/></clipPath><clipPath id="a1cef6ac20"><path d="M 43.800781 42.890625 L 154.582031 38.707031 L 158.796875 150.238281 L 48.015625 154.421875 Z M 43.800781 42.890625 " clip-rule="nonzero"/></clipPath><clipPath id="5336512690"><path d="M 43.800781 42.890625 L 154.582031 38.707031 L 158.796875 150.238281 L 48.015625 154.421875 Z M 43.800781 42.890625 " clip-rule="nonzero"/></clipPath><clipPath id="a0f7a68068"><path d="M 128 56 L 155 56 L 155 82 L 128 82 Z M 128 56 " clip-rule="nonzero"/></clipPath><clipPath id="760b5d140e"><path d="M 43.800781 42.890625 L 154.582031 38.707031 L 158.796875 150.238281 L 48.015625 154.421875 Z M 43.800781 42.890625 " clip-rule="nonzero"/></clipPath><clipPath id="4238555bc2"><path d="M 43.800781 42.890625 L 154.582031 38.707031 L 158.796875 150.238281 L 48.015625 154.421875 Z M 43.800781 42.890625 " clip-rule="nonzero"/></clipPath><clipPath id="da3426f51a"><path d="M 106 39 L 138 39 L 138 83 L 106 83 Z M 106 39 " clip-rule="nonzero"/></clipPath><clipPath id="e643cd2daa"><path d="M 43.800781 42.890625 L 154.582031 38.707031 L 158.796875 150.238281 L 48.015625 154.421875 Z M 43.800781 42.890625 " clip-rule="nonzero"/></clipPath><clipPath id="8cae1355af"><path d="M 43.800781 42.890625 L 154.582031 38.707031 L 158.796875 150.238281 L 48.015625 154.421875 Z M 43.800781 42.890625 " clip-rule="nonzero"/></clipPath><clipPath id="0f4ea4e683"><path d="M 48 82 L 114 82 L 114 152 L 48 152 Z M 48 82 " clip-rule="nonzero"/></clipPath><clipPath id="cae91fd530"><path d="M 43.800781 42.890625 L 154.582031 38.707031 L 158.796875 150.238281 L 48.015625 154.421875 Z M 43.800781 42.890625 " clip-rule="nonzero"/></clipPath><clipPath id="aef34c35de"><path d="M 43.800781 42.890625 L 154.582031 38.707031 L 158.796875 150.238281 L 48.015625 154.421875 Z M 43.800781 42.890625 " clip-rule="nonzero"/></clipPath><clipPath id="268253fb2a"><path d="M 50 82 L 112 82 L 112 150 L 50 150 Z M 50 82 " clip-rule="nonzero"/></clipPath><clipPath id="ca6c6de870"><path d="M 43.800781 42.890625 L 154.582031 38.707031 L 158.796875 150.238281 L 48.015625 154.421875 Z M 43.800781 42.890625 " clip-rule="nonzero"/></clipPath><clipPath id="be80288b6c"><path d="M 43.800781 42.890625 L 154.582031 38.707031 L 158.796875 150.238281 L 48.015625 154.421875 Z M 43.800781 42.890625 " clip-rule="nonzero"/></clipPath><clipPath id="1eb34cc31d"><path d="M 0 0 L 197.75 0 L 197.75 197.75 L 0 197.75 Z M 0 0 " clip-rule="nonzero"/></clipPath><clipPath id="887069c648"><path d="M 10.253906 10.253906 L 187.78125 10.253906 L 187.78125 187.78125 L 10.253906 187.78125 Z M 10.253906 10.253906 " clip-rule="nonzero"/></clipPath></defs><g clip-path="url(#b5f4c80c5d)"><g clip-path="url(#5767a721e4)"><g clip-path="url(#1ad9629ccc)"><path fill="#5f764f" d="M 69.59375 49.125 C 69.597656 49.125 69.597656 49.128906 69.597656 49.132812 C 69.597656 49.128906 69.59375 49.128906 69.59375 49.125 Z M 69.59375 49.125 " fill-opacity="1" fill-rule="nonzero"/></g></g></g><g clip-path="url(#68fa47a059)"><g clip-path="url(#cd50e9611b)"><g clip-path="url(#ee00aed756)"><path fill="#5f764f" d="M 107.339844 137.003906 C 107.195312 136.996094 106.984375 136.914062 106.980469 136.746094 C 106.992188 136.605469 107.136719 136.644531 107.222656 136.601562 C 107.25 136.585938 107.300781 136.578125 107.308594 136.558594 C 107.394531 136.308594 107.667969 136.3125 107.828125 136.167969 C 108.03125 136.234375 108.21875 136.238281 108.367188 136.046875 C 108.710938 136.007812 109.082031 136.042969 109.433594 135.96875 C 110.941406 136.019531 112.503906 136.039062 114.046875 136.097656 C 113.945312 135.902344 113.769531 135.992188 113.636719 135.949219 C 112.921875 135.554688 112.195312 135.652344 111.472656 135.347656 C 111.105469 135.117188 110.679688 135.277344 110.367188 134.992188 C 110.0625 134.945312 109.730469 135.019531 109.480469 134.769531 C 109.207031 134.882812 108.964844 134.699219 108.753906 134.613281 C 108.089844 134.464844 107.511719 134.226562 106.84375 134.027344 C 106.703125 133.996094 106.574219 133.953125 106.460938 133.84375 C 106.371094 133.75 106.175781 133.808594 106.140625 133.582031 C 106.125 133.488281 105.890625 133.699219 105.769531 133.554688 C 105.714844 133.503906 105.621094 133.476562 105.714844 133.378906 C 105.597656 133.1875 105.46875 133.515625 105.351562 133.359375 C 105.039062 132.867188 104.484375 133.929688 104.878906 132.433594 C 105.128906 132.226562 105.496094 132.511719 105.800781 132.433594 C 105.945312 132.398438 106.066406 132.21875 106.242188 132.328125 C 106.253906 132.324219 106.269531 132.324219 106.285156 132.324219 C 106.464844 132.222656 106.640625 132.363281 106.820312 132.320312 C 106.890625 132.328125 106.980469 132.292969 107.015625 132.394531 C 107.03125 132.394531 107.050781 132.394531 107.066406 132.390625 C 107.140625 132.324219 107.207031 132.328125 107.261719 132.417969 C 107.429688 132.429688 107.597656 132.398438 107.75 132.503906 C 108.140625 132.511719 108.53125 132.675781 108.902344 132.703125 C 109.023438 132.726562 109.167969 132.726562 109.25 132.832031 C 109.394531 132.992188 109.597656 132.867188 109.757812 132.957031 C 109.875 132.886719 109.949219 133 110.042969 133.046875 C 110.117188 133.070312 110.226562 132.960938 110.269531 133.105469 C 110.667969 133.332031 111.132812 133.3125 111.554688 133.449219 C 111.613281 133.394531 111.875 133.59375 111.742188 133.304688 L 111.71875 133.300781 C 111.660156 133.335938 111.609375 133.34375 111.574219 133.269531 C 111.457031 133.199219 111.355469 133.109375 111.296875 132.980469 C 111.242188 132.984375 111.1875 132.988281 111.132812 132.992188 C 109.320312 131.929688 107.425781 131.011719 105.726562 129.8125 C 105.589844 129.871094 105.503906 129.78125 105.429688 129.675781 C 105.273438 129.574219 105.109375 129.480469 105.058594 129.277344 C 105.042969 129.261719 103.023438 128.136719 102.945312 127.917969 C 102.925781 127.859375 102.796875 127.835938 102.898438 127.746094 C 102.988281 127.582031 106.730469 128.753906 107.453125 129.152344 C 107.882812 129.222656 108.214844 129.515625 108.597656 129.667969 C 108.742188 129.667969 108.808594 129.765625 108.882812 129.855469 C 108.96875 129.960938 108.984375 130.238281 109.199219 129.960938 C 109.492188 130.085938 109.800781 130.355469 110.117188 130.421875 C 112.859375 131.761719 115.5 133.398438 118.144531 134.765625 C 118.488281 134.792969 118.558594 135.28125 118.886719 135.242188 C 119.027344 135.222656 119.097656 135.296875 119.140625 135.359375 C 119.773438 135.707031 120.328125 136.234375 121.070312 136.355469 C 121.242188 136.359375 121.453125 136.417969 121.550781 136.558594 C 121.859375 136.84375 122.28125 136.691406 122.628906 136.925781 C 122.929688 137.027344 123.277344 137.394531 123.582031 137.269531 C 123.621094 137.183594 123.539062 137.121094 123.472656 137.089844 C 123.179688 137.011719 122.984375 136.621094 122.746094 136.496094 C 122.242188 136.324219 122.03125 135.820312 121.550781 135.660156 C 121.421875 135.496094 121.355469 135.3125 121.117188 135.265625 C 120.957031 135.144531 120.964844 134.886719 120.726562 134.84375 C 119.953125 134.707031 119.714844 133.828125 119.035156 133.601562 C 118.980469 133.601562 118.894531 133.539062 118.878906 133.488281 C 118.816406 133.289062 118.613281 133.273438 118.488281 133.160156 C 118.453125 133.128906 118.367188 133.109375 118.367188 133.082031 C 118.363281 132.8125 118.128906 132.796875 117.972656 132.683594 C 117.558594 132.628906 117.578125 132.078125 117.175781 131.992188 C 116.863281 132.011719 116.820312 131.742188 116.65625 131.613281 C 116.378906 131.292969 115.90625 131.3125 115.628906 130.960938 C 114.699219 130.050781 113.359375 129.636719 112.414062 128.753906 C 111.253906 128.035156 109.871094 127.515625 108.832031 126.660156 C 108.421875 126.679688 108.074219 126.265625 107.648438 126.148438 C 107.21875 126.097656 107.035156 125.667969 106.640625 125.527344 C 105.679688 125.25 104.84375 124.597656 103.933594 124.15625 C 103.460938 123.84375 102.839844 123.800781 102.464844 123.386719 C 101.511719 123 100.5 122.964844 99.492188 122.78125 C 98.898438 122.808594 98.355469 122.398438 97.796875 122.445312 C 97.277344 122.460938 96.832031 122.121094 96.320312 122.238281 C 96.292969 122.246094 96.253906 122.191406 96.222656 122.167969 C 96.136719 122.101562 96.058594 122.054688 95.949219 122.136719 C 95.777344 122.261719 95.589844 122.023438 95.425781 122.03125 C 94 121.808594 92.496094 121.6875 91.167969 121.03125 C 91.074219 121.0625 90.992188 121.046875 90.933594 120.957031 C 90.875 120.84375 90.714844 120.859375 90.652344 120.746094 C 90.144531 120.734375 89.917969 120.191406 89.457031 120.023438 C 89.402344 120 89.425781 119.945312 89.460938 119.921875 C 89.605469 119.738281 90.300781 119.488281 90.285156 119.460938 C 90.339844 119.464844 90.390625 119.472656 90.441406 119.476562 C 91.808594 119.277344 93.34375 119.644531 94.71875 119.917969 C 94.632812 119.664062 94.632812 119.660156 94.472656 119.667969 C 93.941406 119.597656 93.550781 119.0625 92.949219 119.007812 C 92.621094 118.753906 92.277344 118.609375 91.921875 118.40625 C 91.765625 118.234375 91.414062 118.363281 91.257812 118.105469 C 89.570312 117.214844 87.847656 116.257812 86.390625 114.988281 C 86.3125 115.019531 86.269531 114.96875 86.238281 114.90625 C 86.214844 114.894531 86.191406 114.878906 86.167969 114.863281 C 86.109375 114.875 86.070312 114.851562 86.035156 114.808594 C 85.34375 114.28125 84.863281 113.449219 84.15625 112.886719 C 84.019531 112.816406 83.800781 112.230469 83.792969 111.984375 C 83.90625 112.277344 84.292969 112.273438 84.382812 112.578125 C 84.570312 112.753906 84.863281 112.648438 85.058594 112.792969 C 86.9375 113.171875 88.523438 114.546875 90.261719 115.25 C 90.367188 115.578125 90.722656 115.410156 90.894531 115.625 C 90.996094 115.839844 91.214844 115.855469 91.398438 115.90625 C 91.855469 116.082031 92.257812 116.386719 92.714844 116.589844 C 92.65625 116.515625 92.753906 116.320312 92.535156 116.375 C 92.511719 116.382812 92.449219 116.335938 92.441406 116.304688 C 92.386719 116.058594 92.054688 116.042969 92.023438 115.78125 C 92.019531 115.765625 91.980469 115.738281 91.960938 115.746094 C 91.714844 115.800781 91.601562 115.597656 91.511719 115.453125 C 90.851562 114.738281 89.980469 114.230469 89.515625 113.332031 C 89.4375 113.367188 89.386719 113.308594 89.386719 113.257812 C 89.382812 113.113281 89.269531 113.042969 89.21875 112.933594 C 89.125 112.734375 88.84375 112.730469 88.796875 112.496094 C 88.710938 112.375 88.527344 112.34375 88.503906 112.171875 C 88.460938 112.171875 88.421875 112.171875 88.433594 112.109375 C 88.171875 111.851562 88.527344 111.269531 88.785156 111.691406 C 88.875 111.765625 88.882812 111.964844 88.984375 111.960938 C 89.230469 111.945312 89.355469 112.136719 89.539062 112.21875 C 91.464844 112.929688 92.878906 114.449219 94.386719 115.753906 C 95 116.234375 95.625 116.929688 96.378906 117.230469 C 96.441406 117.234375 96.496094 117.289062 96.496094 117.351562 C 96.496094 117.605469 96.710938 117.65625 96.867188 117.765625 C 97.238281 118.1875 98.96875 118.980469 98.785156 119.453125 C 99.226562 119.105469 99.113281 119.863281 99.519531 119.773438 C 99.539062 119.769531 99.578125 119.789062 99.582031 119.808594 C 99.65625 120.023438 99.886719 120.011719 100.035156 120.078125 C 101.214844 120.609375 102.292969 121.1875 103.449219 121.6875 C 103.765625 121.984375 104.082031 122.144531 104.496094 122.28125 C 104.726562 122.363281 104.867188 122.660156 105.164062 122.574219 C 105.226562 122.78125 105.4375 122.761719 105.589844 122.832031 C 105.941406 122.984375 106.148438 123.375 106.566406 123.390625 C 106.617188 123.386719 106.695312 123.394531 106.722656 123.457031 C 106.851562 123.78125 107.289062 123.644531 107.429688 123.941406 C 107.644531 123.84375 107.730469 124.039062 107.851562 124.136719 C 108.144531 124.371094 108.144531 124.375 108.433594 124.414062 C 108.449219 124.257812 108.28125 124.316406 108.226562 124.242188 C 107.96875 123.882812 107.585938 123.617188 107.234375 123.410156 C 107.167969 123.042969 106.742188 123.007812 106.589844 122.71875 C 106.464844 122.484375 106.03125 122.546875 106.066406 122.160156 C 105.746094 121.921875 105.367188 121.726562 105.191406 121.335938 C 104.898438 121.277344 104.699219 121.136719 104.664062 120.816406 C 104.660156 120.785156 104.582031 120.730469 104.550781 120.734375 C 104.355469 120.765625 104.308594 120.574219 104.210938 120.488281 C 104.058594 120.265625 103.683594 120.109375 103.570312 119.925781 C 103.496094 119.691406 103.3125 119.582031 103.175781 119.425781 C 103.128906 119.371094 103.144531 119.253906 103.0625 119.261719 C 102.855469 119.277344 102.722656 119.128906 102.660156 119.003906 C 101.695312 117.863281 100.585938 116.921875 99.550781 115.84375 C 99.421875 115.628906 99.144531 115.707031 99.019531 115.457031 C 98.933594 115.277344 98.644531 115.320312 98.585938 115.09375 C 98.414062 115.140625 98.363281 115.03125 98.316406 114.898438 C 98.285156 114.816406 98.210938 114.773438 98.117188 114.761719 C 97.839844 114.714844 97.714844 114.40625 97.441406 114.351562 C 97.417969 114.027344 96.988281 114.113281 96.917969 113.839844 C 96.125 113.332031 92.101562 110.410156 91.183594 109.660156 C 89.625 108.660156 87.707031 108.339844 86.070312 107.515625 C 85.917969 107.300781 85.472656 107.421875 85.359375 107.339844 C 84.839844 106.972656 84.167969 106.816406 83.574219 106.546875 C 81.953125 105.867188 80.175781 105.367188 78.738281 104.421875 C 77.816406 104.09375 76.851562 103.664062 76.132812 102.929688 C 76.113281 102.933594 76.101562 102.925781 76.09375 102.90625 C 75.773438 102.789062 75.539062 102.484375 75.179688 102.441406 C 75.132812 102.433594 75.121094 102.390625 75.113281 102.34375 C 75.003906 102.023438 75.4375 101.808594 75.617188 102.09375 C 75.683594 102.1875 75.773438 102.191406 75.84375 102.234375 C 76.03125 102.351562 76.183594 102.097656 76.347656 102.234375 C 76.558594 102.246094 76.800781 102.136719 76.972656 102.285156 C 78.160156 102.542969 79.355469 102.917969 80.5 103.339844 C 80.71875 103.433594 81.054688 103.320312 81.140625 103.675781 C 81.566406 103.636719 81.917969 103.921875 82.296875 104.097656 C 82.347656 104.121094 82.410156 104.171875 82.457031 104.101562 C 82.371094 103.757812 81.761719 103.761719 81.609375 103.386719 C 81.398438 103.359375 81.246094 103.273438 81.105469 103.121094 C 80.464844 102.570312 79.699219 102.1875 79.125 101.554688 C 78.996094 101.425781 78.773438 101.449219 78.695312 101.296875 C 78.511719 100.933594 78.042969 100.894531 77.867188 100.535156 C 77.355469 100.339844 77.089844 99.792969 76.570312 99.609375 C 76.394531 99.226562 75.851562 98.949219 75.65625 98.601562 C 75.621094 98.585938 75.589844 98.570312 75.558594 98.554688 C 75.511719 98.558594 75.480469 98.539062 75.449219 98.503906 C 75.335938 98.472656 75.300781 98.359375 75.25 98.265625 C 75.203125 98.214844 75.089844 98.234375 75.101562 98.128906 C 75.027344 97.980469 74.824219 97.988281 74.746094 97.84375 C 74.59375 97.574219 74.308594 97.390625 74.148438 97.136719 C 74.109375 97.113281 74.078125 97.089844 74.078125 97.042969 C 73.886719 96.933594 73.65625 96.609375 73.671875 96.601562 C 73.636719 96.582031 73.457031 96.386719 73.398438 96.316406 C 73.308594 96.210938 72.945312 95.945312 72.941406 95.863281 C 72.90625 95.851562 72.867188 95.84375 72.835938 95.839844 C 72.78125 95.839844 72.796875 95.726562 72.832031 95.71875 C 72.960938 95.707031 73.058594 95.570312 73.203125 95.582031 C 73.203125 95.65625 74.484375 96.476562 74.566406 96.574219 C 74.75 96.625 75.34375 97.085938 75.5625 97.148438 C 76.617188 97.773438 77.765625 98.667969 78.886719 99.355469 C 79.074219 99.441406 79.230469 99.753906 79.417969 99.753906 C 79.632812 99.6875 79.632812 99.992188 79.839844 99.957031 C 79.894531 99.96875 80 100 80 100.007812 C 79.96875 100.257812 80.195312 100.257812 80.320312 100.3125 C 80.488281 100.347656 81.417969 101.273438 81.277344 100.835938 C 79.957031 99.253906 78.035156 98.027344 76.921875 96.296875 C 76.792969 96.296875 76.789062 96.199219 76.777344 96.113281 C 76.652344 95.9375 75.90625 95.242188 75.859375 95.027344 C 75.757812 94.792969 78.207031 95.59375 78.253906 95.808594 C 78.269531 95.902344 79.695312 97.078125 80.359375 97.625 C 80.964844 98.082031 81.449219 98.792969 82.070312 99.292969 C 82.292969 99.585938 82.679688 99.808594 82.722656 100.199219 C 82.71875 100.242188 82.769531 100.257812 82.820312 100.246094 C 83.464844 100.269531 83.480469 101.15625 84.058594 101.367188 C 84.359375 101.921875 84.855469 102.214844 85.25 102.675781 C 85.394531 102.867188 85.472656 103.148438 85.777344 103.199219 C 85.949219 103.558594 86.382812 103.730469 86.617188 104.070312 C 86.902344 104.65625 87.738281 104.710938 88.007812 105.289062 C 88.265625 105.308594 88.390625 105.609375 88.667969 105.59375 C 88.707031 105.589844 88.761719 105.585938 88.777344 105.636719 C 89.242188 106.199219 89.945312 106.496094 90.5625 106.882812 C 90.761719 107.15625 91.113281 107.179688 91.351562 107.398438 C 91.640625 107.519531 91.972656 108 92.277344 107.855469 C 92.34375 107.789062 92.265625 107.746094 92.226562 107.691406 C 91.644531 107.082031 91.195312 106.34375 90.636719 105.722656 C 90.367188 105.644531 90.441406 105.257812 90.148438 105.210938 C 90.09375 105.105469 90.160156 104.976562 89.996094 104.929688 C 89.734375 104.328125 89.304688 103.871094 88.910156 103.339844 C 88.507812 102.710938 88.113281 101.996094 87.601562 101.480469 C 87.503906 100.929688 86.988281 100.671875 86.78125 100.199219 C 86.75 100.019531 86.65625 99.8125 86.523438 99.695312 C 86.039062 99.191406 85.480469 98.664062 85.082031 98.148438 C 84.847656 98.136719 84.730469 97.9375 84.59375 97.8125 C 83.632812 96.726562 82.554688 95.835938 81.476562 94.90625 C 81.332031 94.707031 81.121094 94.535156 80.847656 94.488281 C 80.628906 94.101562 80.101562 94.0625 79.9375 93.648438 C 79.910156 93.464844 79.699219 93.578125 79.59375 93.476562 C 79.335938 93.222656 78.992188 93.078125 78.71875 92.839844 C 78.265625 92.417969 77.617188 92.207031 77.128906 91.792969 C 76.40625 91.507812 75.898438 90.8125 75.121094 90.691406 C 74.628906 90.230469 73.753906 90.113281 73.296875 89.605469 C 71.941406 89.203125 70.820312 88.230469 69.429688 87.875 C 68.847656 87.554688 68.214844 87.320312 67.59375 87.183594 C 67 86.773438 66.320312 86.546875 65.601562 86.339844 C 65.199219 86.144531 64.800781 85.882812 64.367188 85.8125 C 64.152344 85.507812 63.6875 85.625 63.488281 85.285156 C 63.421875 85.199219 63.203125 85.335938 63.148438 85.226562 C 63.066406 85.019531 62.847656 84.972656 62.695312 84.847656 C 62.394531 84.589844 62.175781 84.222656 61.75 84.136719 C 61.113281 83.957031 61.667969 82.992188 62.175781 83.402344 C 62.554688 83.65625 63.105469 83.398438 63.488281 83.632812 C 63.699219 83.785156 63.960938 83.699219 64.195312 83.8125 C 64.324219 83.875 64.472656 84.007812 64.632812 83.996094 C 64.925781 83.917969 65.066406 84.277344 65.3125 84.226562 C 65.40625 84.15625 65.246094 84 65.148438 84.027344 C 65.101562 84.035156 65.03125 84.089844 65.007812 84.042969 C 64.90625 83.804688 64.585938 83.789062 64.507812 83.539062 C 64.484375 83.46875 64.4375 83.476562 64.390625 83.449219 C 63.964844 83.28125 63.648438 82.925781 63.328125 82.664062 C 62.832031 82.660156 62.515625 82.160156 62.160156 81.871094 C 62.121094 81.8125 62.109375 81.710938 62 81.691406 C 61.492188 81.539062 61.269531 80.953125 60.789062 80.742188 C 60.660156 80.691406 60.59375 80.597656 60.574219 80.484375 C 60.429688 80.121094 59.9375 79.980469 59.773438 79.644531 C 59.65625 79.1875 59.152344 78.765625 58.996094 78.71875 C 58.890625 78.660156 58.777344 78.496094 58.941406 78.449219 C 59.289062 78.179688 59.726562 78.554688 60.039062 78.71875 C 60.296875 78.652344 60.40625 78.917969 60.621094 78.972656 C 60.730469 79 60.90625 78.957031 60.96875 79.117188 C 61.011719 79.226562 61.105469 79.234375 61.199219 79.246094 C 61.574219 79.234375 61.679688 79.707031 61.996094 79.753906 C 62.707031 80.011719 63.203125 80.632812 63.921875 80.890625 C 64.878906 81.550781 65.863281 82.257812 66.867188 82.871094 C 67.046875 83.042969 67.1875 83.199219 67.457031 83.171875 C 67.597656 83.4375 67.882812 83.507812 68.132812 83.628906 C 67.949219 83.484375 67.984375 83.238281 67.78125 83.144531 C 67.46875 83.101562 67.367188 82.828125 67.261719 82.609375 C 67.085938 82.082031 66.546875 81.996094 66.34375 81.523438 C 66.269531 81.429688 66.105469 81.46875 66.105469 81.320312 C 64.707031 79.320312 61.652344 74.976562 61.597656 74.859375 C 61.535156 74.710938 63.601562 76.324219 64.167969 76.644531 C 64.25 76.675781 64.382812 76.898438 64.429688 77.023438 C 64.867188 77.546875 65.417969 77.953125 65.800781 78.511719 C 65.855469 78.800781 66.167969 78.800781 66.296875 79.003906 C 66.433594 79.550781 67.042969 79.425781 66.972656 79.683594 C 66.839844 79.9375 67.257812 80.027344 67.332031 80.1875 C 67.460938 80.429688 67.660156 80.589844 67.828125 80.789062 C 68.238281 81.289062 68.660156 81.800781 69.046875 82.3125 C 69.132812 82.453125 69.121094 82.636719 69.359375 82.5625 C 70.09375 83.597656 71.042969 84.570312 71.882812 85.585938 C 71.988281 85.671875 72.09375 85.742188 72.128906 85.890625 C 72.484375 86.027344 72.714844 86.441406 73 86.738281 C 73.335938 87.105469 73.855469 87.214844 74.144531 87.628906 C 74.789062 88.03125 75.511719 88.339844 76.089844 88.761719 C 76.351562 89.035156 76.851562 88.988281 77.003906 89.421875 C 77.839844 89.71875 78.445312 90.378906 79.152344 90.90625 C 79.488281 90.871094 79.816406 91.296875 80.179688 91.484375 C 80.265625 91.550781 80.226562 91.691406 80.34375 91.71875 C 80.839844 91.828125 81.054688 92.300781 81.433594 92.570312 C 81.585938 92.683594 82.261719 93.285156 82.46875 93.390625 C 82.589844 93.558594 81.132812 91.011719 80.648438 90.347656 C 79.761719 89.058594 79.085938 87.628906 78.117188 86.394531 C 77.4375 85.167969 76.355469 83.980469 75.621094 82.761719 C 75.695312 82.613281 75.566406 82.503906 75.503906 82.464844 C 75.226562 82.289062 75.054688 82.03125 74.890625 81.769531 C 73.984375 80.453125 72.84375 79.324219 71.890625 78.042969 C 70.902344 76.90625 69.957031 75.804688 68.855469 74.769531 C 68.710938 74.585938 68.667969 74.292969 68.363281 74.25 C 68.308594 74.246094 68.351562 74.183594 68.34375 74.171875 C 68.238281 74.09375 68.296875 73.859375 68.066406 73.894531 C 67.484375 73.402344 66.695312 72.992188 65.972656 72.640625 C 65.683594 72.421875 65.316406 72.351562 65.070312 72.085938 C 64.878906 72.117188 64.714844 72.03125 64.546875 71.957031 C 64.289062 71.882812 64.074219 71.726562 63.832031 71.621094 C 63.566406 71.507812 63.203125 71.515625 63.089844 71.144531 C 63.070312 71.082031 63.042969 71.148438 63.019531 71.160156 C 62.75 71.34375 62.796875 70.996094 62.664062 71.015625 C 62.53125 71.097656 62.421875 70.996094 62.308594 70.988281 C 61.574219 70.722656 60.804688 70.570312 60.105469 70.195312 C 59.8125 70.011719 59.363281 70.199219 59.167969 69.796875 C 59.160156 69.78125 59.109375 69.773438 59.09375 69.785156 C 58.871094 69.949219 58.734375 69.671875 58.535156 69.652344 C 58.457031 69.644531 58.3125 69.703125 58.226562 69.605469 C 58.074219 69.425781 57.867188 69.335938 57.644531 69.292969 C 57.230469 69.214844 57.046875 68.769531 56.617188 68.695312 C 56.347656 68.648438 56.152344 68.402344 55.921875 68.246094 C 55.652344 68.070312 55.4375 67.851562 55.230469 67.613281 C 55.140625 67.574219 54.933594 67.359375 54.9375 67.296875 C 54.945312 67.195312 55.046875 67.152344 55.15625 67.128906 C 55.335938 67.097656 55.683594 66.941406 55.964844 67.152344 C 56.308594 67.152344 56.648438 67.0625 56.933594 67.289062 C 57.574219 67.261719 58.195312 67.5625 58.773438 67.722656 C 58.867188 67.980469 59.042969 67.878906 59.207031 67.878906 C 59.828125 67.992188 60.402344 68.320312 61.003906 68.523438 C 61.210938 68.320312 60.882812 68.296875 60.832031 68.148438 C 60.136719 67.679688 59.527344 67.050781 58.800781 66.597656 C 58.722656 66.535156 58.601562 66.5 58.582031 66.402344 C 58.546875 66.203125 58.335938 66.183594 58.234375 66.125 C 57.957031 65.949219 57.777344 65.660156 57.472656 65.542969 C 57.515625 65.304688 57.105469 65.378906 57.179688 65.117188 C 57 65.148438 56.902344 65.105469 56.820312 64.964844 C 56.171875 64.234375 55.382812 63.632812 54.683594 62.953125 C 54.355469 62.683594 54.105469 62.304688 53.8125 62.035156 C 53.554688 62.003906 53.496094 61.707031 53.34375 61.539062 C 53.023438 61.136719 52.609375 60.800781 52.347656 60.355469 C 52.113281 60.285156 50.804688 58.230469 50.742188 58.1875 C 50.3125 57.929688 50.988281 57.507812 51.222656 57.78125 C 51.386719 57.921875 51.496094 58.132812 51.726562 58.203125 C 51.789062 58.222656 51.914062 58.257812 51.910156 58.382812 C 52.015625 58.488281 52.125 58.59375 52.234375 58.695312 C 52.320312 58.660156 52.34375 58.691406 52.328125 58.777344 C 52.347656 58.800781 52.371094 58.820312 52.390625 58.84375 C 52.492188 58.855469 52.507812 58.964844 52.578125 59.011719 C 52.882812 59.019531 52.824219 59.332031 52.964844 59.492188 C 52.976562 59.484375 52.984375 59.476562 52.992188 59.46875 C 52.984375 59.457031 52.976562 59.445312 52.96875 59.4375 C 53.324219 59.503906 53.472656 59.945312 53.804688 60.035156 C 54.183594 60.09375 54.226562 60.472656 54.449219 60.6875 C 54.644531 60.757812 54.796875 60.871094 54.871094 61.070312 C 54.945312 61.195312 55.078125 61.046875 55.183594 61.167969 C 55.472656 61.542969 55.898438 61.78125 56.21875 62.113281 C 56.308594 62.230469 56.347656 62.386719 56.554688 62.339844 C 56.675781 62.382812 56.6875 62.613281 56.847656 62.660156 C 57.242188 62.804688 57.523438 63.113281 57.816406 63.402344 C 58.398438 63.863281 59.039062 64.277344 59.527344 64.828125 C 60.175781 64.941406 60.488281 65.714844 61.109375 65.96875 C 61.113281 65.539062 60.730469 65.382812 60.527344 65.113281 C 60.101562 64.210938 59.21875 63.59375 58.855469 62.683594 C 57.613281 61.378906 56.710938 59.648438 55.746094 58.140625 C 55.714844 57.933594 55.582031 57.773438 55.488281 57.589844 C 55.800781 57.417969 56.996094 58.242188 57.09375 58.382812 C 57.28125 58.425781 57.652344 58.785156 57.742188 58.972656 C 57.800781 58.984375 57.8125 59.023438 57.804688 59.074219 C 58.25 59.582031 58.722656 60.199219 59.09375 60.726562 C 59.398438 60.820312 59.398438 61.144531 59.621094 61.3125 C 59.828125 61.46875 59.824219 61.871094 60.136719 62.019531 C 60.15625 62.027344 60.167969 62.09375 60.15625 62.109375 C 60.0625 62.410156 60.527344 62.460938 60.636719 62.699219 C 60.847656 63.40625 61.503906 63.898438 61.847656 64.5625 C 61.945312 64.707031 61.988281 64.945312 62.175781 64.988281 C 62.328125 65.023438 62.347656 65.125 62.359375 65.214844 C 62.84375 65.933594 63.40625 66.605469 63.996094 67.269531 C 65.054688 68.476562 66.199219 69.636719 67.28125 70.796875 C 68.074219 71.191406 68.449219 72.078125 69.257812 72.480469 C 69.386719 72.5625 69.398438 72.800781 69.625 72.78125 C 69.640625 72.78125 69.671875 72.851562 69.675781 72.890625 C 69.734375 73.230469 70.144531 73.359375 70.191406 73.71875 C 71.878906 75.386719 73.308594 77.253906 74.746094 79.101562 C 74.808594 79.070312 74.851562 79.023438 74.863281 78.953125 C 74.855469 78.945312 74.847656 78.933594 74.847656 78.917969 C 74.804688 78.859375 74.679688 78.863281 74.707031 78.746094 C 74.640625 78.582031 74.617188 78.40625 74.519531 78.257812 C 74.597656 77.953125 74.234375 77.839844 74.214844 77.558594 C 74.210938 77.46875 74.0625 77.351562 74.0625 77.214844 C 74.085938 76.976562 73.8125 77.226562 73.878906 76.882812 C 73.914062 76.410156 73.472656 76.332031 73.425781 75.960938 C 73.433594 75.613281 73.054688 75.40625 73.003906 75.039062 C 72.964844 74.632812 72.632812 74.390625 72.546875 74.007812 C 72.515625 73.941406 72.59375 73.84375 72.523438 73.816406 C 72.164062 73.683594 72.554688 73.371094 72.3125 73.179688 C 72.230469 73.109375 72.144531 73.03125 72.214844 72.898438 C 72.050781 72.621094 71.699219 72.300781 71.765625 71.863281 C 71.308594 71.523438 71.460938 70.886719 70.941406 70.574219 C 70.863281 70.527344 70.75 70.421875 70.796875 70.273438 C 70.679688 69.90625 70.394531 69.5625 70.316406 69.15625 C 68.515625 65.75 65.941406 62.910156 63.609375 59.902344 C 62.199219 58.707031 59.257812 56.019531 59.113281 55.996094 C 58.519531 55.859375 58.003906 55.492188 57.402344 55.441406 C 57.261719 55.457031 57.269531 55.304688 57.214844 55.230469 C 57.09375 55.015625 57.050781 55.476562 56.75 55.164062 C 56.542969 54.964844 56.253906 55.023438 56.03125 54.894531 C 55.871094 54.679688 55.601562 54.730469 55.390625 54.632812 L 55.390625 54.640625 C 54.632812 54.300781 53.75 53.949219 52.984375 53.632812 C 52.632812 53.59375 51.335938 52.238281 51.15625 52.269531 C 51.023438 52.292969 50.671875 51.996094 50.800781 51.882812 C 50.886719 51.84375 50.867188 51.707031 51.039062 51.722656 C 51.394531 51.890625 51.703125 51.621094 52.058594 51.667969 C 52.402344 51.816406 52.679688 51.824219 53.042969 51.820312 C 53.246094 51.886719 53.410156 52.113281 53.660156 51.972656 C 53.855469 52.214844 54.289062 51.988281 54.414062 52.371094 C 54.414062 52.382812 54.457031 52.386719 54.484375 52.386719 C 55.027344 52.359375 55.355469 52.746094 55.914062 52.871094 C 56.28125 53.027344 56.722656 53.058594 57.070312 53.273438 C 57.070312 53.242188 57.078125 53.183594 57.066406 53.179688 C 56.929688 53.128906 56.933594 52.949219 56.75 52.914062 C 56.484375 52.886719 56.394531 52.667969 56.328125 52.425781 C 56.140625 52.59375 56.167969 52.207031 56.019531 52.25 C 55.804688 52.359375 55.75 52.175781 55.65625 52.070312 C 55.460938 51.878906 55.171875 51.8125 55.015625 51.5625 C 53.691406 50.773438 52.117188 49.640625 51.453125 48.203125 C 51.113281 47.847656 51.011719 47.519531 51.582031 47.398438 C 51.714844 47.3125 51.832031 47.386719 51.953125 47.433594 C 52.066406 47.289062 52.175781 47.492188 52.300781 47.511719 C 52.585938 47.492188 52.707031 47.71875 52.941406 47.859375 C 53.195312 47.972656 53.550781 48.042969 53.648438 48.402344 C 53.851562 48.558594 54.195312 48.582031 54.253906 48.917969 C 54.269531 49 54.417969 48.96875 54.492188 48.976562 C 54.695312 48.574219 53.867188 48.21875 53.738281 47.820312 C 53.207031 46.953125 52.074219 44.664062 51.925781 44.585938 C 52.058594 44.519531 51.953125 44.347656 52.0625 44.261719 C 52.265625 44.539062 52.566406 44.589844 52.84375 44.707031 C 53.019531 44.6875 53.015625 44.886719 53.132812 44.941406 C 53.214844 44.929688 53.265625 44.964844 53.285156 45.050781 C 53.328125 45.0625 53.355469 45.085938 53.367188 45.132812 C 53.421875 45.164062 53.496094 45.175781 53.519531 45.25 C 55.050781 46.839844 56.378906 48.6875 57.789062 50.382812 C 57.832031 50.664062 58.109375 50.734375 58.191406 50.96875 C 58.242188 51.125 58.492188 51.160156 58.496094 51.398438 C 58.5 51.453125 58.675781 51.515625 58.730469 51.613281 C 59.46875 52.785156 60.308594 53.863281 61.195312 54.949219 C 61.277344 55.09375 61.261719 55.332031 61.53125 55.316406 C 61.734375 55.765625 62.269531 55.957031 62.546875 56.378906 C 62.890625 56.757812 63.253906 57.132812 63.5 57.5625 C 63.769531 57.644531 63.734375 58.03125 64.03125 58.09375 C 64.136719 58.453125 64.535156 58.699219 64.816406 58.96875 C 64.847656 59.441406 65.347656 59.582031 65.53125 59.964844 C 65.65625 60.222656 65.917969 60.421875 66.140625 60.628906 C 66.660156 61.351562 67.152344 62.0625 67.726562 62.746094 C 67.652344 62.546875 67.707031 62.304688 67.484375 62.171875 C 67.304688 62.058594 67.328125 61.84375 67.285156 61.675781 C 67.257812 61.570312 67.109375 61.46875 67.160156 61.421875 C 67.359375 61.253906 67.148438 61.261719 67.085938 61.199219 C 66.964844 61.070312 66.949219 60.882812 66.828125 60.746094 C 66.757812 60.667969 66.882812 60.628906 66.921875 60.566406 C 67 60.355469 66.441406 60.507812 66.546875 60 C 66.566406 59.828125 66.535156 59.691406 66.386719 59.589844 C 66.128906 59.195312 65.964844 58.683594 65.851562 58.21875 C 65.582031 58.109375 65.78125 57.703125 65.472656 57.617188 C 65.472656 57.617188 65.476562 57.613281 65.476562 57.609375 C 65.480469 57.609375 65.480469 57.609375 65.484375 57.609375 C 65.480469 57.605469 65.480469 57.597656 65.476562 57.597656 C 65.292969 57.375 65.3125 57.058594 65.136719 56.839844 C 64.929688 56.570312 65.050781 56.117188 64.644531 55.964844 C 64.492188 55.3125 63.996094 54.792969 63.992188 54.132812 C 63.703125 53.976562 63.679688 53.621094 63.457031 53.414062 C 63.414062 53.371094 63.328125 53.269531 63.417969 53.164062 C 63.449219 52.820312 63.027344 52.53125 62.964844 52.171875 C 62.441406 51.300781 61.597656 50.605469 61.054688 49.765625 C 60.71875 49.652344 60.574219 49.328125 60.371094 49.066406 C 60.171875 48.816406 59.792969 48.710938 59.785156 48.316406 C 59.167969 48.089844 58.789062 47.429688 58.324219 46.96875 C 58.15625 46.726562 57.824219 46.699219 57.746094 46.378906 C 57.542969 46.050781 57.160156 45.882812 56.902344 45.601562 C 56.746094 45.683594 56.675781 45.347656 56.578125 45.253906 C 56.070312 44.8125 55.617188 44.296875 55.085938 43.859375 C 55.007812 43.867188 55 43.820312 55.007812 43.765625 C 55 43.617188 54.832031 43.621094 54.773438 43.523438 C 54.699219 43.503906 54.644531 43.464844 54.664062 43.378906 C 54.648438 43.355469 54.636719 43.328125 54.621094 43.304688 C 54.511719 43.363281 54.460938 43.308594 54.429688 43.210938 C 53.441406 42.117188 52.21875 41.210938 51.511719 39.878906 C 51.246094 39.738281 51.257812 39.398438 51.039062 39.222656 C 51.03125 39.214844 51.042969 39.167969 51.054688 39.152344 C 51.148438 39.058594 51.054688 38.574219 51.394531 38.984375 C 51.53125 39.035156 51.726562 39.011719 51.851562 39.109375 C 51.941406 39.121094 51.875 39.265625 51.988281 39.261719 C 52.269531 39.253906 52.449219 39.488281 52.683594 39.597656 C 53.445312 40.121094 54.105469 40.800781 54.820312 41.40625 C 54.910156 41.496094 54.925781 41.648438 55.054688 41.695312 C 56.003906 42.128906 56.472656 43.152344 57.332031 43.691406 C 57.707031 44.222656 58.269531 44.539062 58.617188 45.125 C 58.738281 45.351562 59.082031 45.421875 59.234375 45.644531 C 59.316406 45.722656 59.359375 45.636719 59.414062 45.601562 C 59.289062 45.425781 59.328125 45.183594 59.15625 45.023438 C 58.871094 44.757812 58.898438 44.285156 58.539062 44.0625 C 58.433594 43.976562 58.613281 43.84375 58.515625 43.753906 C 58.332031 43.550781 58.1875 43.324219 58.136719 43.058594 C 58.109375 42.914062 57.941406 43.039062 57.953125 42.933594 C 57.988281 42.644531 57.847656 42.445312 57.6875 42.21875 C 57.53125 42 57.601562 41.652344 57.292969 41.476562 C 57.128906 41.386719 57.324219 41.050781 57.019531 41.007812 C 56.953125 40.96875 57.003906 40.789062 56.921875 40.738281 C 56.558594 40.503906 56.519531 39.90625 56.511719 39.859375 C 56.503906 39.785156 56.4375 39.765625 56.390625 39.746094 C 56.152344 39.65625 56.300781 39.355469 56.179688 39.171875 C 56.101562 39.082031 55.757812 38.183594 55.582031 37.933594 C 55.585938 37.777344 55.542969 37.644531 55.378906 37.578125 C 55.339844 37.5625 55.328125 37.519531 55.351562 37.472656 C 55.238281 37.351562 55.164062 37.21875 55.199219 37.050781 C 55.101562 36.96875 55.132812 36.789062 54.964844 36.765625 C 54.753906 35.917969 56.074219 36.703125 56.035156 37.117188 C 56.117188 37.136719 56.035156 37.3125 56.164062 37.269531 C 56.308594 37.226562 56.339844 37.277344 56.300781 37.398438 C 56.28125 37.667969 56.582031 37.851562 56.703125 38.082031 C 56.734375 38.089844 56.726562 38.113281 56.71875 38.136719 C 56.75 38.179688 56.828125 38.179688 56.808594 38.253906 C 56.828125 38.277344 56.847656 38.304688 56.867188 38.328125 C 56.9375 38.355469 56.984375 38.402344 56.964844 38.488281 C 56.992188 38.527344 57.019531 38.566406 57.046875 38.605469 C 57.140625 38.597656 57.136719 38.640625 57.097656 38.703125 C 57.148438 38.808594 57.230469 38.90625 57.324219 38.984375 C 57.574219 39.085938 57.550781 39.484375 57.847656 39.574219 C 57.875 39.613281 57.773438 39.734375 57.847656 39.769531 C 58.210938 39.972656 58.171875 40.359375 58.488281 40.617188 C 58.675781 40.714844 58.601562 41.097656 58.910156 41.167969 C 58.886719 41.59375 59.503906 42.078125 59.769531 42.472656 C 59.859375 42.574219 59.785156 42.722656 59.898438 42.785156 C 60.125 42.914062 60.113281 43.261719 60.410156 43.320312 C 60.507812 43.472656 60.457031 43.695312 60.660156 43.820312 C 60.75 43.898438 60.773438 44.027344 60.933594 44.054688 C 60.976562 44.0625 60.878906 44.300781 60.957031 44.425781 C 61 44.613281 61.207031 44.671875 61.273438 44.855469 C 61.460938 45.171875 61.6875 45.570312 61.871094 45.859375 C 62.152344 46.023438 62.054688 46.363281 62.289062 46.523438 C 62.398438 46.589844 62.410156 46.675781 62.429688 46.777344 C 62.460938 46.796875 62.488281 46.816406 62.519531 46.835938 C 62.355469 44.378906 61.203125 41.933594 61.324219 39.484375 C 61.289062 39.441406 61.257812 39.402344 61.339844 39.375 C 61.355469 39.351562 61.371094 39.324219 61.386719 39.300781 C 61.261719 39.125 61.210938 38.929688 61.285156 38.71875 C 61.390625 38.175781 61.851562 39.398438 61.941406 39.550781 C 62.222656 39.71875 62.089844 40.023438 62.199219 40.265625 C 62.273438 40.25 62.285156 40.320312 62.21875 40.339844 C 62.757812 42.199219 63.089844 44.175781 63.476562 46.078125 C 63.75 46.335938 63.484375 46.734375 63.570312 47.058594 C 63.578125 47.148438 63.597656 47.222656 63.664062 47.285156 C 64.050781 47.574219 63.734375 48.03125 63.921875 48.429688 C 64.167969 49.304688 64.554688 50.105469 64.828125 50.957031 C 64.800781 51.214844 64.910156 51.425781 65.023438 51.652344 C 65.085938 51.777344 65.28125 51.769531 65.261719 51.949219 C 65.300781 52.421875 65.699219 52.800781 65.785156 53.265625 C 66.023438 53.394531 66.109375 53.671875 66.140625 53.898438 C 66.234375 54.417969 66.640625 54.714844 66.746094 55.210938 C 67.035156 55.433594 66.9375 55.878906 67.214844 56.128906 C 67.085938 56.355469 67.335938 56.457031 67.40625 56.605469 C 67.585938 56.898438 67.707031 57.21875 67.789062 57.546875 C 68.089844 57.648438 68.03125 57.957031 68.128906 58.167969 C 68.222656 58.367188 68.457031 58.546875 68.320312 58.820312 C 68.546875 58.941406 68.648438 59.144531 68.6875 59.390625 C 68.738281 59.339844 68.789062 59.289062 68.839844 59.238281 C 68.652344 58.371094 68.890625 57.492188 68.609375 56.613281 C 68.566406 56.605469 68.511719 56.558594 68.53125 56.535156 C 68.625 56.402344 68.550781 56.273438 68.546875 56.140625 C 68.285156 56.023438 68.5 55.890625 68.621094 55.75 C 68.589844 55.722656 68.5625 55.691406 68.53125 55.664062 C 68.289062 55.726562 68.308594 55.359375 68.445312 55.238281 C 68.457031 55.140625 68.292969 55.019531 68.488281 54.953125 C 68.195312 54.746094 68.40625 54.53125 68.355469 54.269531 C 68.3125 54.203125 68.175781 54.171875 68.277344 54.054688 C 68.199219 53.539062 68.148438 53.027344 68.144531 52.496094 C 68.109375 51.945312 67.855469 51.417969 67.921875 50.847656 C 67.925781 50.699219 68.109375 50.53125 67.859375 50.414062 C 67.910156 50.203125 68.035156 49.992188 67.828125 49.777344 C 67.628906 49.445312 67.898438 48.949219 67.722656 48.621094 C 67.554688 48.347656 67.703125 48.136719 67.722656 47.882812 C 67.640625 47.636719 67.664062 47.402344 67.824219 47.1875 C 67.863281 47.132812 67.914062 47.078125 67.832031 47.015625 C 67.527344 46.9375 67.75 46.546875 67.863281 46.398438 C 67.9375 46.410156 67.949219 46.335938 67.863281 46.335938 C 67.679688 46.140625 68.085938 45.679688 68.277344 45.980469 C 68.269531 45.59375 68.269531 45.59375 68.5 45.503906 C 68.394531 45.671875 68.601562 45.765625 68.554688 45.894531 C 68.464844 46.144531 68.640625 46.332031 68.671875 46.550781 C 69.066406 47.0625 69.289062 47.886719 69.316406 48.523438 C 69.324219 48.535156 69.328125 48.546875 69.328125 48.5625 C 69.367188 48.589844 69.390625 48.621094 69.371094 48.671875 C 69.402344 48.695312 69.429688 48.714844 69.457031 48.734375 C 69.636719 48.683594 69.410156 49.019531 69.59375 49.125 C 69.515625 49.179688 69.492188 49.269531 69.460938 49.351562 C 69.46875 49.367188 69.476562 49.378906 69.476562 49.394531 C 69.535156 49.425781 69.589844 49.390625 69.644531 49.386719 C 69.644531 49.300781 69.652344 49.207031 69.597656 49.132812 C 70.363281 47.695312 69.769531 44.941406 70.757812 43.792969 C 70.792969 43.28125 70.625 43.191406 71.230469 43.183594 C 71.378906 43.132812 71.394531 43.15625 71.363281 43.316406 C 71.449219 43.492188 71.589844 43.644531 71.605469 43.863281 C 71.957031 44.164062 71.980469 44.53125 71.949219 44.9375 C 72.023438 45.066406 71.972656 45.15625 71.859375 45.222656 C 71.851562 45.25 71.84375 45.277344 71.832031 45.304688 C 72.039062 45.480469 71.964844 45.644531 71.824219 45.808594 C 71.828125 45.824219 71.828125 45.839844 71.824219 45.851562 C 71.929688 45.949219 71.945312 46.109375 71.785156 46.183594 C 71.789062 46.234375 71.769531 46.273438 71.714844 46.273438 C 71.714844 46.3125 71.71875 46.347656 71.71875 46.382812 C 71.917969 46.398438 71.882812 46.5 71.804688 46.613281 C 71.851562 46.777344 71.722656 46.894531 71.695312 47.039062 C 71.621094 47.421875 71.789062 47.835938 71.542969 48.199219 C 71.6875 48.722656 71.363281 49.199219 71.417969 49.71875 C 71.460938 50.808594 71.136719 51.964844 71.132812 53.070312 C 71.265625 53.503906 70.886719 53.886719 71.03125 54.265625 C 71.164062 54.648438 71.011719 54.847656 70.75 55.078125 C 70.761719 55.523438 70.648438 55.992188 70.621094 56.402344 C 70.746094 56.519531 70.679688 56.648438 70.664062 56.785156 C 70.65625 56.855469 70.527344 56.917969 70.617188 56.980469 C 70.726562 57.054688 70.746094 56.882812 70.835938 56.867188 C 70.867188 56.859375 70.910156 56.800781 70.867188 56.722656 C 70.726562 56.4375 71.175781 56.226562 71.152344 55.945312 C 71.160156 55.617188 71.304688 55.121094 71.570312 55.007812 C 71.570312 55.007812 71.890625 54.640625 71.773438 54.378906 C 72.015625 53.640625 73.046875 51.8125 73.082031 51.554688 C 73.097656 51.339844 73.308594 51.265625 73.40625 51.132812 C 73.351562 50.824219 73.613281 50.769531 73.785156 50.640625 C 73.839844 50.523438 73.992188 50.390625 74.09375 50.371094 C 74.136719 50.28125 74.410156 50.414062 74.558594 50.210938 C 74.53125 50.234375 74.777344 50.960938 74.664062 51.195312 C 74.578125 51.507812 74.554688 51.84375 74.359375 52.121094 C 74.59375 52.363281 74.210938 52.605469 74.164062 52.855469 C 74.285156 53.09375 74 53.167969 73.996094 53.375 C 74.039062 53.488281 74.03125 53.617188 73.941406 53.675781 C 73.761719 53.789062 73.804688 53.992188 73.714844 54.136719 C 73.710938 54.246094 73.671875 54.328125 73.570312 54.402344 C 73.578125 54.542969 73.566406 54.664062 73.46875 54.78125 C 73.484375 54.902344 73.421875 54.964844 73.316406 55 C 73.285156 55.050781 73.199219 55.078125 73.242188 55.160156 C 73.507812 55.109375 73.097656 55.710938 73.027344 55.800781 C 72.984375 55.964844 72.996094 56.136719 72.875 56.265625 C 72.886719 56.394531 72.9375 56.523438 72.808594 56.625 C 72.699219 56.898438 72.53125 57.160156 72.570312 57.480469 C 72.460938 57.769531 72.207031 58.003906 72.183594 58.347656 C 71.886719 59.457031 71.699219 60.582031 71.460938 61.699219 C 71.539062 62.148438 71.296875 62.652344 71.375 63.09375 C 71.550781 63.703125 71.382812 64.277344 71.539062 64.90625 C 71.589844 65.582031 71.449219 66.363281 71.976562 66.910156 C 72.03125 67.238281 72.242188 67.511719 72.285156 67.859375 C 72.320312 68.109375 72.550781 68.28125 72.554688 68.546875 C 72.878906 68.617188 72.710938 68.976562 72.902344 69.152344 C 73.078125 69.234375 73.019531 69.699219 73.097656 69.84375 C 73.457031 69.816406 73.066406 70.132812 73.277344 70.238281 C 73.535156 70.527344 73.675781 70.921875 73.835938 71.320312 C 73.929688 71.570312 74.179688 71.746094 74.15625 72.046875 C 74.230469 72.269531 74.457031 72.464844 74.472656 72.707031 C 74.472656 72.96875 74.773438 73.140625 74.675781 73.421875 C 74.753906 73.464844 74.90625 73.582031 74.867188 73.6875 C 74.824219 73.847656 74.941406 73.925781 75.019531 74.015625 C 75.292969 74.402344 75.304688 74.933594 75.613281 75.320312 C 75.738281 75.527344 75.667969 75.832031 75.933594 75.96875 C 76.117188 76.542969 76.394531 77.101562 76.542969 77.675781 C 76.84375 77.863281 76.714844 78.308594 77.027344 78.488281 C 77.046875 78.5 77.042969 78.550781 77.054688 78.582031 C 77.179688 79.164062 77.554688 79.605469 77.824219 80.125 C 77.929688 80.355469 77.839844 80.695312 78.15625 80.820312 C 78.113281 81.046875 78.4375 81.121094 78.398438 81.257812 C 78.476562 81.746094 78.835938 82.378906 79.078125 82.847656 C 79.4375 83.132812 79.367188 83.53125 79.609375 83.894531 C 79.714844 84.007812 79.925781 84.167969 79.824219 84.410156 C 79.816406 84.429688 79.902344 84.476562 79.921875 84.515625 C 80.035156 84.757812 80.273438 84.933594 80.296875 85.230469 C 80.300781 85.308594 80.308594 85.4375 80.46875 85.433594 C 80.59375 85.425781 80.589844 85.546875 80.558594 85.621094 C 80.472656 85.820312 80.597656 85.914062 80.742188 85.976562 C 81.023438 86.214844 81.019531 86.699219 81.292969 86.988281 C 81.34375 86.957031 81.390625 86.976562 81.4375 86.988281 C 81.441406 86.964844 81.445312 86.9375 81.449219 86.910156 C 81.429688 86.867188 81.378906 86.832031 81.410156 86.777344 C 81.375 86.742188 81.355469 86.699219 81.382812 86.652344 C 81.164062 86.242188 81.371094 85.746094 81.1875 85.339844 C 81.089844 85.21875 81.214844 85.070312 81.121094 84.964844 C 80.988281 84.816406 81.144531 84.585938 80.957031 84.453125 C 80.9375 84.441406 80.964844 84.386719 81 84.378906 C 81.238281 84.320312 80.949219 84.261719 81 84.207031 C 80.972656 84.207031 80.9375 84.273438 80.945312 84.171875 C 80.957031 83.992188 80.816406 83.753906 80.742188 83.722656 C 80.410156 83.597656 80.582031 83.351562 80.542969 83.160156 C 80.523438 83.066406 80.335938 83.082031 80.402344 82.933594 C 80.339844 82.75 80.355469 82.59375 80.441406 82.425781 C 80.425781 82.398438 80.414062 82.371094 80.398438 82.347656 C 80.164062 82.339844 80.332031 82.171875 80.304688 82.085938 C 80.234375 81.882812 79.988281 81.683594 80.242188 81.445312 C 80.09375 81.183594 79.886719 80.9375 79.945312 80.597656 C 79.855469 80.523438 80.035156 80.433594 79.917969 80.351562 C 79.675781 80.183594 79.65625 79.878906 79.652344 79.652344 C 79.566406 79.152344 79.453125 78.574219 79.335938 78.132812 C 79.160156 78.113281 79.191406 77.953125 79.1875 77.867188 C 79.117188 77.535156 79.273438 77.058594 79.140625 76.785156 C 78.898438 76.792969 78.972656 76.59375 78.988281 76.519531 C 79.074219 76.179688 78.621094 76.167969 78.71875 75.851562 C 78.722656 75.621094 78.777344 75.367188 78.628906 75.175781 C 78.535156 75.058594 78.527344 74.980469 78.625 74.902344 C 78.851562 74.6875 78.347656 74.789062 78.398438 74.421875 C 78.347656 74.074219 78.054688 73.773438 78.199219 73.390625 C 77.960938 72.835938 77.761719 72.226562 77.800781 71.617188 C 77.640625 71.488281 77.585938 71.3125 77.582031 71.117188 C 77.574219 71.105469 77.566406 71.09375 77.5625 71.078125 C 77.582031 71.078125 77.597656 71.082031 77.617188 71.078125 C 77.644531 70.90625 77.398438 70.835938 77.453125 70.652344 C 77.324219 70.5 77.429688 70.328125 77.445312 70.164062 C 77.445312 70.058594 77.253906 70.101562 77.292969 70 C 77.371094 69.796875 77.214844 69.582031 77.339844 69.386719 C 77.355469 69.242188 77.15625 69.210938 77.230469 69.0625 C 77.253906 68.980469 77.171875 68.886719 77.253906 68.808594 C 77.128906 68.636719 77.074219 68.453125 77.179688 68.246094 C 77.234375 68.128906 77.070312 66.90625 77.25 66.734375 C 77.398438 66.644531 77.460938 66.886719 77.59375 66.832031 C 77.84375 66.761719 77.878906 66.910156 77.851562 67.101562 C 77.964844 67.269531 78.246094 67.902344 78.183594 68.058594 C 78.523438 68.144531 78.472656 68.449219 78.535156 68.691406 C 78.632812 68.832031 78.867188 68.910156 78.738281 69.15625 C 78.703125 69.265625 78.882812 69.386719 78.871094 69.503906 C 79.125 69.746094 79.078125 70.035156 79.136719 70.328125 C 79.15625 70.324219 79.199219 70.320312 79.199219 70.320312 C 79.207031 70.371094 79.167969 70.386719 79.136719 70.40625 C 79.160156 70.433594 79.183594 70.460938 79.207031 70.488281 C 79.277344 70.480469 79.375 70.5 79.367188 70.554688 C 79.429688 70.875 79.382812 71.308594 79.699219 71.472656 C 79.652344 70.949219 79.753906 70.414062 79.777344 69.933594 C 79.804688 69.113281 79.964844 68.304688 80.054688 67.488281 C 79.953125 67.324219 80.132812 67.257812 80.214844 67.140625 C 80.226562 67.058594 80.09375 66.996094 80.175781 66.902344 C 80.097656 66.78125 80.210938 66.679688 80.246094 66.566406 C 80.195312 66.328125 80.566406 66.195312 80.449219 66 C 80.183594 65.726562 80.769531 65.105469 80.6875 64.683594 C 80.71875 64.371094 81.105469 64.347656 81.207031 64.058594 C 81.027344 64.703125 81.109375 65.460938 81.230469 66.113281 C 81.382812 66.207031 81.269531 66.335938 81.277344 66.449219 C 81.234375 66.539062 81.179688 66.652344 81.238281 66.734375 C 81.355469 66.980469 81.210938 67.261719 81.25 67.53125 C 81.179688 67.742188 81.476562 67.574219 81.355469 67.828125 C 81.125 68.394531 81.554688 68.300781 81.453125 68.597656 C 81.148438 69.0625 81.757812 69.550781 81.410156 69.960938 C 81.363281 70.023438 81.347656 70.085938 81.433594 70.128906 C 81.636719 70.46875 81.292969 71.066406 81.574219 71.460938 C 81.605469 71.714844 81.464844 71.992188 81.585938 72.253906 C 81.621094 72.363281 81.617188 72.484375 81.535156 72.582031 C 81.617188 72.671875 81.484375 72.792969 81.582031 72.886719 C 81.675781 72.976562 81.644531 73.082031 81.585938 73.183594 C 81.652344 73.410156 81.636719 73.847656 81.910156 73.523438 C 81.996094 72.332031 82.640625 71.304688 82.925781 70.191406 C 82.992188 69.871094 83.355469 69.671875 83.390625 69.308594 C 83.421875 69.183594 83.449219 69.035156 83.597656 68.976562 C 83.617188 68.785156 83.835938 68.820312 83.921875 68.667969 C 84.070312 68.40625 84.261719 67.800781 84.894531 67.894531 C 84.757812 69.066406 84.808594 70.28125 84.25 71.355469 C 84.316406 71.84375 83.949219 72.207031 83.902344 72.632812 C 83.90625 72.957031 83.632812 73.261719 83.667969 73.613281 C 83.710938 73.667969 83.691406 73.714844 83.640625 73.753906 C 83.640625 73.769531 83.636719 73.78125 83.628906 73.796875 C 83.671875 73.976562 83.515625 74.066406 83.449219 74.199219 C 83.453125 74.507812 83.464844 74.808594 83.300781 75.09375 C 83.308594 75.273438 83.1875 75.878906 83.105469 76.035156 C 83.144531 76.078125 83.15625 76.125 83.113281 76.175781 C 83.105469 76.269531 83.089844 76.367188 83.007812 76.433594 C 83.003906 76.472656 83 76.511719 83 76.546875 C 83.050781 76.632812 83.003906 76.679688 82.933594 76.722656 C 82.933594 76.738281 82.929688 76.753906 82.929688 76.769531 C 82.992188 77.136719 82.699219 77.558594 82.640625 77.945312 C 82.789062 78.207031 82.386719 78.402344 82.644531 78.652344 C 82.671875 78.679688 82.65625 78.753906 82.601562 78.746094 C 82.351562 78.78125 82.683594 79.335938 82.421875 79.480469 C 82.214844 81.6875 82.800781 83.902344 83.183594 86.074219 C 83.1875 86.199219 83.09375 86.335938 83.195312 86.464844 C 83.378906 86.765625 83.203125 87.136719 83.339844 87.457031 C 83.335938 87.78125 83.640625 88.066406 83.488281 88.382812 C 83.625 88.644531 83.863281 88.925781 83.660156 89.234375 C 83.917969 89.269531 83.757812 89.53125 83.769531 89.699219 C 83.964844 89.855469 83.640625 89.953125 83.835938 90.136719 C 84.113281 90.546875 84.027344 91.0625 84.195312 91.515625 C 84.253906 91.628906 84.363281 91.792969 84.277344 91.960938 C 84.933594 93.492188 86.171875 94.839844 86.789062 96.378906 C 86.921875 96.636719 87.234375 96.839844 87.3125 97.089844 C 87.277344 97.417969 87.589844 97.546875 87.71875 97.765625 C 88.234375 98.546875 88.808594 99.46875 89.21875 100.203125 C 89.476562 100.378906 89.570312 100.6875 89.679688 100.953125 C 90.203125 101.554688 90.609375 102.265625 91.066406 102.878906 C 91.890625 104.054688 92.75 105.1875 93.503906 106.367188 C 94.375 107.0625 94.734375 108.28125 95.679688 108.863281 C 95.617188 108.78125 95.660156 108.660156 95.621094 108.527344 C 95.617188 108.316406 95.351562 108.519531 95.324219 108.335938 C 95.308594 108.214844 95.433594 108.058594 95.257812 107.96875 C 94.886719 107.523438 94.808594 106.886719 94.480469 106.402344 C 94.414062 106.316406 94.519531 106.164062 94.453125 106.109375 C 94.210938 105.921875 94.199219 105.683594 94.277344 105.382812 C 94 105.542969 94 105.367188 93.972656 105.1875 C 94.039062 104.835938 93.597656 104.617188 93.640625 104.234375 C 93.53125 104.113281 93.40625 103.996094 93.53125 103.808594 C 93.515625 103.503906 93.152344 103.410156 93.152344 103.089844 C 93.0625 102.179688 92.363281 101.296875 92.101562 100.355469 C 91.804688 100.285156 91.824219 100.011719 91.730469 99.785156 C 91.714844 99.773438 91.695312 99.761719 91.679688 99.75 C 91.601562 99.449219 91.640625 99.085938 91.246094 98.945312 C 91.175781 98.921875 91.265625 98.871094 91.28125 98.828125 C 91.355469 98.660156 91.273438 98.644531 91.144531 98.707031 C 91.28125 98.261719 90.738281 98.082031 90.765625 97.675781 C 90.679688 97.1875 90.328125 96.789062 90.167969 96.316406 C 90.121094 96.226562 89.953125 96.230469 89.992188 96.125 C 90.082031 95.730469 89.640625 95.457031 89.804688 95.058594 C 89.820312 95.03125 89.8125 94.953125 89.726562 94.964844 C 89.542969 94.992188 89.515625 94.972656 89.5 94.8125 C 89.125 93.796875 88.664062 92.738281 88.378906 91.65625 C 88.296875 91.605469 88.269531 91.539062 88.320312 91.449219 C 88.089844 91.132812 88.09375 90.828125 88.0625 90.464844 C 88.011719 90.203125 87.902344 89.957031 88.007812 89.703125 C 88.007812 89.664062 88.082031 89.652344 88.027344 89.585938 C 87.734375 89.335938 88.105469 88.492188 88.378906 88.984375 C 88.417969 89.289062 88.851562 89.355469 88.8125 89.726562 C 89.3125 90.15625 89.5625 90.945312 89.902344 91.539062 C 89.871094 91.863281 90.238281 91.980469 90.257812 92.3125 C 90.242188 92.609375 90.558594 92.667969 90.621094 92.886719 C 90.636719 93.226562 90.765625 93.625 90.964844 93.867188 C 91.117188 93.324219 90.6875 92.839844 90.761719 92.292969 C 90.886719 91.859375 90.625 91.457031 90.648438 91.050781 C 90.632812 90.945312 90.527344 90.859375 90.585938 90.738281 C 90.421875 89.480469 90.207031 88.257812 90.277344 86.984375 C 90.347656 86.339844 90.019531 85.585938 90.417969 84.996094 C 90.34375 84.734375 90.210938 84.472656 90.382812 84.199219 C 90.21875 84.066406 90.792969 83.152344 90.941406 83.160156 C 91.058594 83.21875 91.707031 84.234375 91.597656 84.359375 C 91.601562 84.414062 91.601562 84.46875 91.605469 84.519531 C 91.742188 84.632812 91.910156 85.894531 91.890625 85.992188 C 91.921875 86.042969 91.886719 86.089844 91.863281 86.132812 C 91.898438 86.175781 91.945312 86.21875 91.925781 86.285156 C 92.039062 86.386719 92.03125 86.507812 92 86.640625 C 92.027344 86.691406 92.058594 86.746094 91.976562 86.78125 C 91.976562 86.8125 91.972656 86.84375 91.972656 86.875 C 92.082031 86.988281 92.105469 87.117188 92.03125 87.261719 C 92.125 87.285156 92.109375 87.339844 92.074219 87.402344 C 92.09375 87.433594 92.140625 87.464844 92.089844 87.507812 C 92.21875 87.699219 92.246094 87.902344 92.183594 88.121094 C 92.371094 88.519531 92.320312 88.992188 92.414062 89.421875 C 92.476562 89.503906 92.421875 89.609375 92.460938 89.703125 C 92.511719 89.753906 92.496094 89.800781 92.449219 89.847656 C 92.445312 89.875 92.4375 89.902344 92.433594 89.933594 C 92.578125 90.066406 92.519531 90.28125 92.625 90.429688 C 92.617188 90.457031 92.527344 90.523438 92.53125 90.585938 C 92.5625 90.621094 92.632812 90.648438 92.578125 90.71875 C 92.578125 90.734375 92.578125 90.753906 92.578125 90.769531 C 92.914062 90.75 92.613281 90.296875 92.910156 90.195312 C 92.8125 89.910156 93.085938 89.671875 93.007812 89.390625 C 93.113281 89.300781 93.15625 89.152344 93.191406 89.019531 C 93.308594 88.707031 93.207031 88.378906 93.324219 88.050781 C 93.527344 87.746094 93.527344 87.363281 93.507812 87.003906 C 93.539062 86.96875 93.566406 86.929688 93.59375 86.890625 C 93.613281 86.664062 93.769531 86.484375 93.902344 86.3125 C 94.015625 86.1875 94.207031 85.089844 94.402344 85.558594 C 94.453125 85.847656 94.832031 85.46875 94.777344 85.710938 C 94.859375 85.796875 94.964844 85.773438 95.0625 85.777344 C 95.160156 85.785156 95.199219 85.820312 95.144531 85.902344 C 95.03125 86.074219 95.15625 86.195312 95.234375 86.316406 C 95.652344 87.449219 94.847656 88.699219 94.921875 89.820312 C 94.8125 90.132812 94.570312 90.445312 94.628906 90.804688 C 94.519531 91.613281 94.292969 92.40625 94.105469 93.179688 C 93.953125 93.359375 94.066406 93.542969 94.066406 93.734375 C 93.945312 93.960938 93.753906 94.175781 93.914062 94.464844 C 93.9375 94.511719 93.914062 94.625 93.871094 94.652344 C 93.59375 94.84375 93.875 95.203125 93.640625 95.402344 C 93.617188 95.425781 93.660156 95.445312 93.679688 95.453125 C 93.851562 95.519531 93.777344 95.644531 93.742188 95.75 C 93.644531 96.042969 93.914062 96.351562 93.609375 96.59375 C 93.527344 96.65625 93.566406 97.773438 93.859375 98.015625 C 93.984375 98.101562 93.796875 98.261719 93.835938 98.367188 C 93.960938 98.609375 93.933594 98.894531 94.058594 99.132812 C 94.125 99.175781 94.214844 99.199219 94.175781 99.308594 C 94.191406 99.367188 94.207031 99.421875 94.222656 99.476562 C 94.347656 99.960938 94.339844 100.621094 94.632812 101.121094 C 94.761719 101.324219 94.886719 101.574219 94.71875 101.839844 C 94.984375 101.945312 95.089844 102.257812 94.964844 102.554688 C 95.144531 102.675781 95.082031 102.875 95.179688 103.039062 C 95.214844 103.082031 95.367188 103.109375 95.277344 103.226562 C 95.359375 103.316406 95.234375 103.433594 95.324219 103.519531 C 95.488281 103.546875 95.511719 103.660156 95.503906 103.800781 C 95.554688 104.230469 95.761719 104.734375 95.945312 105.121094 C 96.105469 105.222656 96.136719 105.363281 96.148438 105.53125 C 96.246094 106.242188 96.902344 106.734375 96.933594 107.457031 C 97.160156 107.542969 97.34375 107.804688 97.332031 108.035156 C 97.554688 108.429688 97.933594 108.921875 97.882812 109.359375 C 98.128906 109.351562 98.125 109.574219 98.207031 109.695312 C 98.308594 109.84375 98.484375 109.964844 98.488281 110.160156 C 98.472656 110.445312 98.875 110.597656 98.894531 110.832031 C 99 111.21875 99.335938 111.441406 99.445312 111.796875 C 99.773438 111.957031 99.855469 112.460938 100.003906 112.710938 C 100.625 113.089844 100.789062 113.898438 101.304688 114.398438 C 101.660156 114.78125 102.152344 115.195312 102.273438 115.726562 C 102.277344 115.78125 102.308594 115.808594 102.359375 115.792969 C 102.472656 115.761719 102.480469 115.832031 102.542969 115.90625 C 103.390625 117.070312 104.546875 117.847656 105.460938 118.980469 C 105.894531 119.324219 105.984375 119.945312 106.363281 120.296875 C 106.742188 120.363281 106.785156 120.785156 107.09375 120.929688 C 107.300781 120.996094 107.382812 121.214844 107.464844 121.382812 C 107.6875 121.460938 107.8125 121.644531 107.96875 121.796875 C 108.039062 121.800781 108.054688 121.835938 108.027344 121.898438 C 108.050781 121.917969 108.074219 121.9375 108.09375 121.960938 C 108.222656 121.90625 108.203125 122.074219 108.296875 122.113281 C 108.378906 122.183594 108.574219 122.101562 108.554688 122.308594 C 108.605469 122.433594 108.738281 122.457031 108.832031 122.53125 C 108.851562 122.5 108.871094 122.46875 108.890625 122.4375 C 108.75 122.246094 108.800781 121.957031 108.554688 121.820312 C 108.53125 121.808594 108.511719 121.757812 108.515625 121.730469 C 108.566406 121.355469 108.160156 121.210938 108.09375 120.925781 C 108.21875 120.523438 107.617188 120.410156 107.71875 119.992188 C 107.71875 119.785156 107.445312 119.667969 107.390625 119.472656 C 107.265625 119.289062 107.253906 119.050781 107.109375 118.894531 C 106.757812 118.625 106.785156 118.148438 106.554688 117.851562 C 106.078125 117.5 105.984375 116.921875 105.679688 116.457031 C 105.574219 116.105469 105.089844 115.863281 104.996094 115.527344 C 105.0625 115.390625 104.980469 115.378906 104.894531 115.34375 C 104.851562 115.324219 104.785156 115.277344 104.785156 115.242188 C 104.789062 114.914062 104.511719 114.71875 104.386719 114.453125 C 104.296875 114.261719 104.164062 114.09375 104.148438 113.867188 C 104.144531 113.808594 104.101562 113.753906 104.046875 113.78125 C 103.691406 113.84375 103.878906 113.246094 103.605469 113.097656 C 102.828125 112.328125 102.59375 111.164062 101.910156 110.359375 C 101.472656 109.542969 100.816406 108.796875 100.515625 107.882812 C 100.488281 107.859375 100.488281 107.832031 100.511719 107.808594 C 100.3125 107.648438 100.203125 107.417969 100.199219 107.167969 C 100.144531 107.089844 100.011719 107.058594 100.046875 106.921875 C 100.042969 106.910156 100.039062 106.898438 100.042969 106.886719 C 99.972656 106.609375 99.789062 106.363281 99.78125 106.0625 C 99.726562 105.914062 99.847656 105.75 99.746094 105.605469 C 99.609375 105.515625 99.710938 105.433594 99.761719 105.355469 C 99.589844 105.265625 99.601562 105.105469 99.671875 104.964844 C 99.71875 104.800781 99.847656 104.957031 99.921875 104.902344 L 99.921875 104.894531 C 99.78125 104.746094 99.980469 104.714844 100.023438 104.648438 C 100.074219 104.578125 100.144531 104.664062 100.210938 104.707031 C 100.320312 104.78125 100.273438 104.964844 100.425781 105.003906 C 100.59375 105.050781 100.636719 105.226562 100.652344 105.371094 C 100.648438 105.339844 100.644531 105.308594 100.640625 105.277344 C 100.820312 105.390625 100.933594 105.539062 101.015625 105.726562 C 101.128906 105.84375 101.320312 105.90625 101.304688 106.117188 C 101.378906 106.234375 101.511719 106.316406 101.53125 106.46875 C 101.683594 106.488281 101.617188 106.597656 101.613281 106.679688 C 101.628906 106.703125 101.648438 106.734375 101.664062 106.757812 C 101.84375 106.808594 101.796875 107 101.902344 107.109375 C 102.140625 107.140625 101.96875 107.410156 102.160156 107.53125 C 102.292969 107.566406 102.257812 107.738281 102.371094 107.789062 C 102.347656 107.804688 102.320312 107.824219 102.292969 107.84375 C 102.316406 107.871094 102.335938 107.898438 102.355469 107.925781 C 102.503906 107.949219 102.421875 108.0625 102.4375 108.136719 C 102.476562 108.179688 102.515625 108.21875 102.550781 108.261719 C 102.601562 108.332031 102.734375 108.347656 102.679688 108.476562 C 102.652344 108.570312 102.78125 108.601562 102.765625 108.691406 C 102.945312 108.84375 102.84375 109.160156 103.132812 109.242188 C 103.300781 109.296875 103.269531 109.449219 103.242188 109.601562 C 103.304688 109.648438 103.382812 109.691406 103.359375 109.792969 C 103.429688 109.855469 103.5 109.921875 103.570312 109.988281 C 103.109375 107.410156 101.988281 105.027344 101.675781 102.425781 C 101.539062 101.894531 101.328125 101.339844 101.359375 100.757812 C 101.359375 100.402344 101.792969 100.5625 101.832031 100.824219 C 101.789062 101.410156 102.417969 101.648438 102.484375 102.167969 L 102.480469 102.171875 C 102.511719 102.226562 102.554688 102.28125 102.507812 102.347656 C 103.164062 104.234375 103.863281 106.152344 104.25 108.121094 C 104.488281 108.25 104.445312 108.476562 104.445312 108.691406 C 104.46875 108.714844 104.488281 108.738281 104.511719 108.761719 C 104.578125 108.75 104.640625 108.742188 104.703125 108.730469 C 104.769531 108.539062 104.570312 108.3125 104.734375 108.183594 C 104.730469 108.167969 104.730469 108.152344 104.734375 108.132812 C 104.675781 108.03125 104.683594 107.945312 104.804688 107.898438 C 104.804688 107.882812 104.804688 107.871094 104.800781 107.855469 C 104.441406 107.683594 104.667969 107.105469 104.640625 106.753906 C 104.359375 106.3125 104.617188 105.722656 104.5 105.257812 C 104.414062 105.167969 104.421875 105.046875 104.515625 104.949219 C 104.472656 104.835938 104.402344 104.71875 104.546875 104.625 C 104.554688 104.472656 104.375 104.367188 104.488281 104.226562 C 104.488281 104 104.351562 103.796875 104.46875 103.539062 C 104.527344 103.410156 104.605469 103.171875 104.46875 102.992188 C 104.296875 102.863281 104.402344 102.707031 104.421875 102.5625 C 104.441406 102.539062 104.460938 102.515625 104.480469 102.488281 C 104.40625 102.003906 104.695312 101.46875 104.808594 100.984375 C 104.933594 100.925781 104.855469 100.207031 104.886719 99.921875 C 105.011719 100.019531 105.507812 100.96875 105.632812 101.375 C 105.621094 101.390625 105.609375 101.40625 105.597656 101.417969 L 105.609375 101.417969 C 105.886719 101.714844 105.8125 102.113281 105.9375 102.464844 C 106.074219 102.765625 106.054688 103.105469 106.179688 103.40625 C 106.199219 103.453125 106.207031 103.546875 106.128906 103.585938 C 106.03125 103.871094 106.320312 104.441406 106.1875 104.78125 C 106.101562 104.921875 106.371094 104.835938 106.308594 104.949219 C 106.15625 105.203125 106.414062 105.414062 106.355469 105.679688 C 106.257812 106.113281 106.648438 106.671875 106.4375 107.117188 C 106.4375 107.191406 106.378906 107.230469 106.34375 107.289062 C 106.371094 107.410156 106.523438 107.378906 106.574219 107.492188 C 106.1875 107.894531 106.863281 109.753906 106.820312 110.453125 C 106.925781 110.957031 106.960938 111.546875 106.988281 112.035156 C 107.175781 112.207031 107.09375 112.445312 107.191406 112.640625 C 107.3125 112.875 107.121094 113.214844 107.382812 113.4375 C 107.398438 113.449219 107.386719 113.488281 107.390625 113.511719 C 107.429688 114.070312 107.636719 114.523438 107.769531 115.074219 C 107.765625 115.273438 107.921875 115.472656 107.835938 115.695312 C 107.832031 115.703125 107.863281 115.734375 107.886719 115.746094 C 108.1875 116.023438 108.015625 116.515625 108.316406 116.816406 C 108.34375 116.851562 108.375 116.9375 108.355469 116.957031 C 108.175781 117.21875 108.691406 117.855469 108.773438 118.195312 C 108.804688 118.261719 108.910156 118.269531 108.886719 118.335938 C 108.773438 118.710938 109.164062 118.855469 109.25 119.144531 C 110.191406 120.785156 111.371094 122.460938 112.363281 124.058594 C 113.050781 125.015625 113.867188 125.90625 114.425781 126.9375 C 115.144531 127.5 115.300781 128.53125 116.066406 129.035156 C 119.609375 132.214844 123.367188 135.21875 127.164062 138.113281 C 126.71875 137.15625 125.625 136.769531 125.019531 135.910156 C 124.566406 135.515625 124.265625 134.957031 123.742188 134.609375 C 123.398438 134.21875 123.261719 133.679688 122.804688 133.394531 C 122.84375 133.183594 122.589844 133.183594 122.546875 133.023438 C 122.394531 132.550781 121.886719 132.351562 121.625 131.953125 C 121.671875 131.917969 121.625 131.863281 121.582031 131.914062 C 121.339844 131.449219 120.855469 131.101562 120.570312 130.722656 C 120.703125 130.375 120.386719 130.207031 120.230469 130.089844 C 119.597656 129.566406 119.167969 128.867188 118.648438 128.253906 C 117.828125 127.3125 117.148438 126.203125 116.378906 125.210938 C 116.230469 124.960938 115.871094 124.84375 115.894531 124.472656 C 115.15625 123.746094 114.511719 122.804688 113.914062 121.90625 C 113.699219 121.828125 113.597656 121.558594 113.601562 121.449219 C 113.574219 121.183594 113.34375 121.039062 113.269531 120.800781 C 113.148438 120.742188 113.179688 120.636719 113.1875 120.535156 C 113.171875 120.515625 113.152344 120.492188 113.136719 120.472656 C 112.921875 120.335938 113.089844 119.957031 112.832031 119.78125 C 112.613281 119.628906 112.878906 119.28125 112.644531 119.191406 C 112.472656 119.105469 112.46875 118.996094 112.628906 118.90625 C 112.695312 118.871094 112.609375 118.785156 112.707031 118.761719 C 112.75 118.828125 114.507812 120.640625 115.101562 121.132812 C 115.082031 121.128906 115.066406 121.125 115.046875 121.121094 C 115.335938 121.207031 115.304688 121.675781 115.667969 121.726562 C 115.675781 121.730469 115.691406 121.78125 115.683594 121.789062 C 115.597656 121.886719 115.726562 121.902344 115.734375 121.9375 C 115.785156 122.167969 116.074219 122.203125 116.109375 122.417969 C 116.148438 122.65625 116.507812 122.714844 116.433594 123.011719 C 116.640625 123.074219 116.765625 123.28125 116.855469 123.460938 C 117.023438 123.824219 117.496094 123.964844 117.511719 124.414062 C 117.558594 124.441406 117.605469 124.46875 117.652344 124.496094 C 117.703125 124.476562 117.726562 124.515625 117.753906 124.546875 C 117.941406 124.613281 117.703125 124.828125 117.925781 124.867188 C 118.121094 124.835938 118.269531 125.558594 118.355469 125.089844 C 116.917969 122.726562 115.90625 120.125 115.003906 117.507812 C 114.847656 117.449219 114.882812 117.3125 114.867188 117.191406 C 114.886719 117.214844 114.90625 117.238281 114.921875 117.261719 C 114.855469 117.171875 114.726562 115.484375 114.636719 115.421875 C 114.601562 115.398438 114.570312 115.355469 114.625 115.324219 C 114.78125 115.277344 114.789062 115.539062 114.878906 115.625 C 115.289062 116.21875 115.515625 116.75 115.5625 116.902344 C 115.503906 117.199219 116.246094 117.710938 116.148438 117.953125 C 116.066406 118.382812 116.433594 118.625 116.617188 118.980469 C 116.765625 119.25 116.761719 119.597656 117.03125 119.804688 C 117.070312 119.835938 117.074219 119.882812 117.039062 119.914062 C 116.921875 120.011719 117.003906 120.066406 117.078125 120.132812 C 117.363281 120.292969 117.394531 120.609375 117.496094 120.882812 C 117.835938 121.25 117.867188 121.789062 118.207031 122.152344 C 118.234375 122.183594 118.273438 122.230469 118.269531 122.261719 C 118.210938 122.660156 118.671875 122.757812 118.738281 123.113281 C 118.957031 123.859375 119.585938 124.363281 119.792969 125.097656 C 119.792969 125.136719 119.804688 125.320312 119.90625 125.339844 C 120.21875 125.414062 120.171875 125.738281 120.328125 125.917969 C 120.601562 126.09375 120.726562 126.90625 121.058594 126.757812 C 121.101562 126.625 121.128906 126.496094 120.988281 126.394531 C 120.953125 126.367188 120.929688 126.328125 120.949219 126.28125 C 121.078125 125.988281 120.753906 125.773438 120.785156 125.5 C 120.878906 125.183594 120.683594 124.90625 120.667969 124.605469 C 120.660156 124.527344 120.488281 124.476562 120.613281 124.363281 C 120.617188 124.175781 120.410156 124.042969 120.476562 123.835938 C 120.449219 123.746094 120.480469 123.660156 120.511719 123.574219 C 120.503906 123.46875 120.394531 123.390625 120.429688 123.273438 C 120.496094 123.085938 120.234375 123.046875 120.246094 122.886719 C 120.257812 122.417969 120.078125 121.949219 120.070312 121.636719 C 120.042969 121.355469 120.003906 121.074219 119.996094 120.792969 C 119.992188 120.648438 120.101562 120.492188 119.878906 120.414062 C 119.773438 120.324219 119.933594 120.097656 119.929688 119.96875 C 119.734375 119.835938 119.863281 119.636719 119.820312 119.457031 C 119.753906 119.242188 120.007812 119.09375 119.9375 118.878906 C 119.890625 118.503906 119.824219 118.285156 119.972656 117.945312 C 120.082031 117.910156 121.480469 120.335938 121.46875 120.398438 C 121.421875 120.621094 121.613281 120.800781 121.550781 121.015625 C 121.53125 121.085938 121.550781 121.140625 121.621094 121.1875 C 122.042969 121.390625 121.335938 121.660156 121.675781 121.824219 C 121.746094 121.855469 121.710938 121.898438 121.726562 121.933594 C 121.800781 122.078125 121.746094 122.300781 121.875 122.378906 C 122.097656 122.511719 122.085938 122.636719 121.964844 122.808594 C 121.925781 122.863281 121.945312 122.925781 121.972656 122.949219 C 122.195312 123.148438 121.972656 123.644531 122.179688 123.816406 C 122.417969 123.957031 122.363281 124.15625 122.390625 124.351562 C 122.382812 124.769531 122.632812 125.1875 122.570312 125.582031 C 122.550781 125.632812 122.511719 125.667969 122.5625 125.710938 C 122.886719 126.335938 122.871094 127.304688 123.003906 128.015625 C 123.035156 128.140625 123.1875 128.199219 123.15625 128.3125 C 123.074219 128.574219 123.25 128.769531 123.289062 128.996094 C 123.464844 129.335938 123.316406 129.75 123.601562 130.050781 C 123.683594 130.632812 123.816406 131.242188 124.128906 131.722656 C 124.066406 132.121094 124.539062 132.277344 124.636719 132.605469 C 125.136719 133.816406 126.402344 134.613281 126.992188 135.726562 C 127.152344 135.835938 127.386719 135.921875 127.445312 136.074219 C 127.652344 136.484375 128.09375 136.714844 128.277344 137.109375 C 128.453125 137.066406 128.464844 137.230469 128.550781 137.3125 C 128.671875 137.425781 128.589844 137.683594 128.882812 137.703125 C 129.375 138.140625 129.984375 138.785156 130.472656 139.261719 C 131.15625 139.839844 131.6875 140.542969 132.378906 141.09375 C 132.664062 141.121094 132.546875 141.484375 132.761719 141.574219 C 133.3125 141.851562 133.519531 142.542969 134.070312 142.84375 C 134.320312 143.054688 134.832031 143.089844 134.910156 143.476562 C 135.09375 143.359375 135.191406 143.539062 135.265625 143.628906 C 135.398438 143.789062 135.613281 143.75 135.753906 143.9375 C 136.902344 145.019531 138.347656 145.878906 139.726562 146.636719 C 143.570312 149.113281 148.035156 151 151.863281 153.199219 C 151.9375 153.460938 151.714844 153.714844 151.445312 153.554688 C 150.378906 153.066406 149.230469 152.695312 148.171875 152.210938 C 148.023438 151.972656 147.730469 151.945312 147.535156 151.910156 C 146.59375 151.582031 145.683594 151.085938 144.789062 150.667969 C 144.511719 150.347656 144.023438 150.292969 143.6875 150.09375 C 142.828125 149.652344 142.046875 149.121094 141.121094 148.785156 C 140.425781 148.273438 139.648438 147.882812 138.921875 147.453125 C 138.46875 147.378906 138.277344 146.769531 137.804688 146.921875 C 137.488281 146.480469 136.859375 146.398438 136.464844 146.050781 C 136.277344 145.878906 135.960938 145.894531 135.863281 145.609375 C 135.359375 145.449219 134.84375 145.277344 134.46875 144.859375 C 134.359375 144.730469 134.277344 144.519531 134.035156 144.621094 C 134.011719 144.632812 133.953125 144.605469 133.945312 144.585938 C 133.867188 144.34375 133.625 144.316406 133.453125 144.191406 C 132.019531 143.472656 130.695312 142.683594 129.242188 142.074219 C 127.714844 141.140625 125.976562 140.457031 124.421875 139.65625 C 123.800781 139.578125 123.296875 139.222656 122.710938 138.984375 C 121.664062 138.476562 120.484375 138.589844 119.359375 138.332031 C 118.835938 138.269531 118.257812 138.230469 117.796875 138.097656 C 117.601562 138.433594 117.402344 138.023438 117.230469 138.050781 C 117.105469 138.265625 116.972656 138.148438 116.816406 138.105469 C 116.671875 138.066406 116.492188 138.203125 116.375 138.003906 C 116.367188 137.992188 116.28125 138.023438 116.238281 138.046875 C 115.679688 138.164062 115.035156 137.871094 114.449219 138.03125 C 114.40625 138.050781 114.316406 138.042969 114.28125 138.007812 C 114.136719 137.875 113.96875 137.941406 113.824219 137.960938 C 113.484375 138.074219 113.222656 137.730469 112.890625 137.886719 C 112.757812 137.96875 112.558594 138.015625 112.390625 137.886719 C 112.105469 137.84375 111.789062 137.996094 111.5 137.871094 C 110.210938 137.675781 108.742188 137.902344 107.59375 137.179688 C 107.480469 137.207031 107.417969 137.066406 107.339844 137.003906 Z M 106.210938 133.601562 C 106.210938 133.609375 106.214844 133.617188 106.214844 133.625 C 106.222656 133.625 106.230469 133.625 106.238281 133.625 C 106.238281 133.601562 106.230469 133.597656 106.210938 133.601562 Z M 65.132812 52.011719 C 65.132812 51.992188 65.125 51.984375 65.105469 51.992188 C 65.109375 52 65.109375 52.007812 65.113281 52.011719 C 65.117188 52.011719 65.125 52.011719 65.132812 52.011719 Z M 112.351562 124.046875 C 112.339844 124.042969 112.324219 124.042969 112.3125 124.042969 C 112.316406 124.070312 112.359375 124.078125 112.351562 124.046875 Z M 112.351562 124.046875 " fill-opacity="1" fill-rule="nonzero"/></g></g></g><g clip-path="url(#781b088d85)"><g clip-path="url(#b5952c3968)"><g clip-path="url(#5dae7e6433)"><path fill="#5f764f" d="M 65.449219 57.609375 C 65.453125 57.601562 65.457031 57.589844 65.464844 57.582031 C 65.464844 57.585938 65.472656 57.589844 65.476562 57.597656 C 65.476562 57.597656 65.472656 57.605469 65.476562 57.605469 C 65.46875 57.609375 65.457031 57.609375 65.449219 57.609375 Z M 65.449219 57.609375 " fill-opacity="1" fill-rule="nonzero"/></g></g></g><g clip-path="url(#b3fb36969d)"><g clip-path="url(#a47ea59749)"><g clip-path="url(#b1943a0e20)"><path fill="#545454" d="M 137.472656 41.90625 L 115.628906 67.003906 C 114.90625 67.789062 114.949219 69.011719 115.734375 69.738281 C 116.515625 70.464844 117.738281 70.417969 118.464844 69.636719 L 141.84375 45.960938 L 143.277344 47.289062 L 121.433594 72.386719 C 120.710938 73.167969 120.753906 74.394531 121.539062 75.121094 C 122.320312 75.84375 123.546875 75.796875 124.273438 75.019531 L 147.648438 51.34375 L 149.082031 52.671875 L 127.238281 77.769531 C 126.515625 78.550781 126.5625 79.777344 127.34375 80.503906 C 128.128906 81.226562 129.351562 81.179688 130.074219 80.398438 L 153.453125 56.726562 L 154.878906 58.046875 L 127.253906 87.84375 C 123.894531 91.46875 118.230469 91.683594 114.601562 88.320312 L 108.898438 83.03125 C 105.273438 79.667969 105.058594 74.003906 108.421875 70.378906 L 136.046875 40.582031 L 137.472656 41.90625 " fill-opacity="1" fill-rule="nonzero"/></g></g></g><g clip-path="url(#9ac533cac8)"><g clip-path="url(#e63acc9182)"><g clip-path="url(#51b5bf9fea)"><path fill="#545454" d="M 113.964844 87.730469 L 60.71875 150.933594 C 58.109375 153.746094 53.710938 153.910156 50.902344 151.304688 C 48.085938 148.695312 47.921875 144.300781 50.527344 141.484375 L 109.535156 83.625 L 113.964844 87.730469 " fill-opacity="1" fill-rule="nonzero"/></g></g></g><g clip-path="url(#e26b3ec2d9)"><g clip-path="url(#242a8ecc49)"><g clip-path="url(#85a1ffbf64)"><path fill="#f59627" d="M 137.273438 40.734375 L 115.4375 65.832031 C 114.710938 66.617188 114.757812 67.839844 115.539062 68.5625 C 116.324219 69.289062 117.546875 69.246094 118.269531 68.460938 L 141.648438 44.789062 L 143.078125 46.121094 L 121.242188 71.214844 C 120.511719 71.996094 120.5625 73.222656 121.34375 73.949219 C 122.128906 74.671875 123.347656 74.628906 124.078125 73.84375 L 147.453125 50.171875 L 148.886719 51.5 L 127.046875 76.597656 C 126.320312 77.378906 126.367188 78.605469 127.148438 79.328125 C 127.933594 80.054688 129.15625 80.011719 129.882812 79.226562 L 153.257812 55.554688 L 154.683594 56.878906 L 127.058594 86.671875 C 123.695312 90.296875 118.03125 90.511719 114.410156 87.148438 L 108.703125 81.859375 C 105.078125 78.5 104.863281 72.835938 108.222656 69.207031 L 135.847656 39.414062 L 137.273438 40.734375 " fill-opacity="1" fill-rule="nonzero"/></g></g></g><g clip-path="url(#ae2c90ffc2)"><g clip-path="url(#6c3d99e0cd)"><g clip-path="url(#bb588d86ca)"><path fill="#f59627" d="M 122.570312 75.082031 C 122.429688 74.953125 122.324219 74.808594 122.230469 74.660156 C 122.988281 75.039062 123.925781 74.910156 124.523438 74.261719 L 147.90625 50.59375 L 148.691406 51.320312 L 125.308594 74.988281 C 124.582031 75.769531 123.355469 75.8125 122.570312 75.082031 " fill-opacity="1" fill-rule="nonzero"/></g></g></g><g clip-path="url(#43fb899fcd)"><g clip-path="url(#a1cef6ac20)"><g clip-path="url(#5336512690)"><path fill="#f59627" d="M 116.722656 69.660156 C 116.585938 69.539062 116.480469 69.390625 116.386719 69.242188 C 117.144531 69.621094 118.082031 69.488281 118.683594 68.84375 L 142.0625 45.175781 L 142.847656 45.902344 L 119.464844 69.566406 C 118.742188 70.355469 117.511719 70.390625 116.722656 69.660156 " fill-opacity="1" fill-rule="nonzero"/></g></g></g><g clip-path="url(#a0f7a68068)"><g clip-path="url(#760b5d140e)"><g clip-path="url(#4238555bc2)"><path fill="#f59627" d="M 128.410156 80.5 C 128.277344 80.375 128.167969 80.230469 128.074219 80.078125 C 128.828125 80.457031 129.769531 80.324219 130.367188 79.679688 L 153.75 56.015625 L 154.535156 56.742188 L 131.15625 80.40625 C 130.425781 81.1875 129.203125 81.230469 128.410156 80.5 " fill-opacity="1" fill-rule="nonzero"/></g></g></g><g clip-path="url(#da3426f51a)"><g clip-path="url(#e643cd2daa)"><g clip-path="url(#8cae1355af)"><path fill="#f59627" d="M 137.011719 40.492188 L 109.386719 70.285156 C 106.023438 73.910156 106.257812 79.59375 109.910156 82.976562 L 109.121094 82.25 C 105.472656 78.863281 105.242188 73.183594 108.601562 69.554688 L 136.226562 39.765625 L 137.011719 40.492188 " fill-opacity="1" fill-rule="nonzero"/></g></g></g><g clip-path="url(#0f4ea4e683)"><g clip-path="url(#cae91fd530)"><g clip-path="url(#aef34c35de)"><path fill="#f59627" d="M 113.769531 86.558594 L 60.519531 149.761719 C 57.914062 152.574219 53.519531 152.742188 50.707031 150.136719 C 47.894531 147.523438 47.726562 143.128906 50.335938 140.316406 L 109.339844 82.449219 L 113.769531 86.558594 " fill-opacity="1" fill-rule="nonzero"/></g></g></g><g clip-path="url(#268253fb2a)"><g clip-path="url(#ca6c6de870)"><g clip-path="url(#be80288b6c)"><path fill="#f59627" d="M 109.890625 82.960938 L 111.074219 84.058594 L 53.402344 141.558594 C 51.058594 144.085938 50.667969 147.601562 52.351562 149.816406 C 52.128906 149.671875 51.910156 149.511719 51.707031 149.324219 C 49.417969 147.203125 49.648438 143.234375 52.21875 140.457031 L 109.890625 82.960938 " fill-opacity="1" fill-rule="nonzero"/></g></g></g><g clip-path="url(#1eb34cc31d)"><path fill="#f59627" d="M 98.886719 197.773438 C 44.253906 197.773438 0 153.214844 0 98.886719 C 0 44.558594 44.253906 0 98.886719 0 C 153.519531 0 197.773438 44.253906 197.773438 98.886719 C 197.773438 153.519531 153.214844 197.773438 98.886719 197.773438 Z M 98.886719 6.105469 C 47.613281 6.105469 6.105469 47.613281 6.105469 98.886719 C 6.105469 150.164062 47.613281 191.671875 98.886719 191.671875 C 150.164062 191.671875 191.671875 150.164062 191.671875 98.886719 C 191.671875 47.613281 149.855469 6.105469 98.886719 6.105469 Z M 98.886719 6.105469 " fill-opacity="1" fill-rule="nonzero"/></g><g clip-path="url(#887069c648)"><path fill="#c87513" d="M 98.886719 187.523438 C 50.03125 187.523438 10.253906 147.746094 10.253906 98.886719 C 10.253906 50.03125 50.03125 10.253906 98.886719 10.253906 C 147.746094 10.253906 187.523438 50.03125 187.523438 98.886719 C 187.523438 147.746094 147.746094 187.523438 98.886719 187.523438 Z M 98.886719 11.5625 C 50.730469 11.5625 11.5625 50.730469 11.5625 98.886719 C 11.5625 147.046875 50.730469 186.214844 98.886719 186.214844 C 147.046875 186.214844 186.214844 147.046875 186.214844 98.886719 C 186.214844 50.730469 147.046875 11.5625 98.886719 11.5625 Z M 98.886719 11.5625 " fill-opacity="1" fill-rule="nonzero"/></g></svg>